<svg xmlns="http://www.w3.org/2000/svg" xmlns:xlink="http://www.w3.org/1999/xlink" version="1.1" width="776" height="550" fill="white">
  <g>
    <path d="M 77.6 480.5 L 698.4 480.5" fill="none" stroke="#E0E6F1" stroke-width="1" paint-order="fill" stroke-opacity="1" stroke-dasharray="none" stroke-linecap="butt" stroke-miterlimit="10"></path>
    <path d="M 77.6 427.5 L 698.4 427.5" fill="none" stroke="#E0E6F1" stroke-width="1" paint-order="fill" stroke-opacity="1" stroke-dasharray="none" stroke-linecap="butt" stroke-miterlimit="10"></path>
    <path d="M 77.6 375.5 L 698.4 375.5" fill="none" stroke="#E0E6F1" stroke-width="1" paint-order="fill" stroke-opacity="1" stroke-dasharray="none" stroke-linecap="butt" stroke-miterlimit="10"></path>
    <path d="M 77.6 322.5 L 698.4 322.5" fill="none" stroke="#E0E6F1" stroke-width="1" paint-order="fill" stroke-opacity="1" stroke-dasharray="none" stroke-linecap="butt" stroke-miterlimit="10"></path>
    <path d="M 77.6 270.5 L 698.4 270.5" fill="none" stroke="#E0E6F1" stroke-width="1" paint-order="fill" stroke-opacity="1" stroke-dasharray="none" stroke-linecap="butt" stroke-miterlimit="10"></path>
    <path d="M 77.6 217.5 L 698.4 217.5" fill="none" stroke="#E0E6F1" stroke-width="1" paint-order="fill" stroke-opacity="1" stroke-dasharray="none" stroke-linecap="butt" stroke-miterlimit="10"></path>
    <path d="M 77.6 165.5 L 698.4 165.5" fill="none" stroke="#E0E6F1" stroke-width="1" paint-order="fill" stroke-opacity="1" stroke-dasharray="none" stroke-linecap="butt" stroke-miterlimit="10"></path>
    <path d="M 77.5 480 L 77.5 165" fill="none" stroke="#6E7079" stroke-width="1" paint-order="fill" stroke-opacity="1" stroke-dasharray="none" stroke-linecap="round" stroke-miterlimit="10"></path>
    <text xml:space="preserve" style="font: 12px sans-serif;" fill="#6E7079" fill-opacity="1" stroke="none" transform="matrix(0,-1,1,0,27.6,322.5)" dominant-baseline="central" text-anchor="middle" x="0" y="-6">Tender Count</text>
    <path d="M 77.6 480.5 L 698.4 480.5" fill="none" stroke="#6E7079" stroke-width="1" paint-order="fill" stroke-opacity="1" stroke-dasharray="none" stroke-linecap="round" stroke-miterlimit="10"></path>
    <text xml:space="preserve" style="font: 12px sans-serif;" fill="#6E7079" fill-opacity="1" stroke="none" transform="matrix(1,0,0,1,388,510)" dominant-baseline="central" text-anchor="middle" x="0" y="6">Fiscal Year</text>
    <text xml:space="preserve" style="font: 12px sans-serif;" fill="#6E7079" fill-opacity="1" stroke="none" transform="matrix(1,0,0,1,69.6,480)" dominant-baseline="central" text-anchor="end" x="0" y="0">0</text>
    <text xml:space="preserve" style="font: 12px sans-serif;" fill="#6E7079" fill-opacity="1" stroke="none" transform="matrix(1,0,0,1,69.6,427.5)" dominant-baseline="central" text-anchor="end" x="0" y="0">500</text>
    <text xml:space="preserve" style="font: 12px sans-serif;" fill="#6E7079" fill-opacity="1" stroke="none" transform="matrix(1,0,0,1,69.6,375)" dominant-baseline="central" text-anchor="end" x="0" y="0">1,000</text>
    <text xml:space="preserve" style="font: 12px sans-serif;" fill="#6E7079" fill-opacity="1" stroke="none" transform="matrix(1,0,0,1,69.6,322.5)" dominant-baseline="central" text-anchor="end" x="0" y="0">1,500</text>
    <text xml:space="preserve" style="font: 12px sans-serif;" fill="#6E7079" fill-opacity="1" stroke="none" transform="matrix(1,0,0,1,69.6,270)" dominant-baseline="central" text-anchor="end" x="0" y="0">2,000</text>
    <text xml:space="preserve" style="font: 12px sans-serif;" fill="#6E7079" fill-opacity="1" stroke="none" transform="matrix(1,0,0,1,69.6,217.5)" dominant-baseline="central" text-anchor="end" x="0" y="0">2,500</text>
    <text xml:space="preserve" style="font: 12px sans-serif;" fill="#6E7079" fill-opacity="1" stroke="none" transform="matrix(1,0,0,1,69.6,165)" dominant-baseline="central" text-anchor="end" x="0" y="0">3,000</text>
    <text xml:space="preserve" style="font: 12px sans-serif;" fill="#6E7079" fill-opacity="1" stroke="none" transform="matrix(1,0,0,1,139.68,488)" dominant-baseline="central" text-anchor="middle" x="0" y="6">2016-17</text>
    <text xml:space="preserve" style="font: 12px sans-serif;" fill="#6E7079" fill-opacity="1" stroke="none" transform="matrix(1,0,0,1,263.84,488)" dominant-baseline="central" text-anchor="middle" x="0" y="6">2017-18</text>
    <text xml:space="preserve" style="font: 12px sans-serif;" fill="#6E7079" fill-opacity="1" stroke="none" transform="matrix(1,0,0,1,388,488)" dominant-baseline="central" text-anchor="middle" x="0" y="6">2018-19</text>
    <text xml:space="preserve" style="font: 12px sans-serif;" fill="#6E7079" fill-opacity="1" stroke="none" transform="matrix(1,0,0,1,512.16,488)" dominant-baseline="central" text-anchor="middle" x="0" y="6">2019-20</text>
    <text xml:space="preserve" style="font: 12px sans-serif;" fill="#6E7079" fill-opacity="1" stroke="none" transform="matrix(1,0,0,1,636.32,488)" dominant-baseline="central" text-anchor="middle" x="0" y="6">2020-21</text>
    <path d="M 0 0 L 6.6667 15 L 0 11.25 L -6.6667 15 L 0 0 Z" fill="#6E7079" fill-opacity="1" stroke="none" transform="matrix(1,0,0,1,77.6,165)"></path>
    <path d="M 0 0 L 6.6667 15 L 0 11.25 L -6.6667 15 L 0 0 Z" fill="#6E7079" fill-opacity="1" stroke="none" transform="matrix(0,1,-1,0,698.4,480)"></path>
    <path d="M 86.912 480 L 101.9886 480 L 101.9886 417.315 L 86.912 417.315 L 86.912 480 Z" fill="#ED8686" fill-opacity="1" stroke="none"></path>
    <path d="M 211.072 480 L 226.1486 480 L 226.1486 300.135 L 211.072 300.135 L 211.072 480 Z" fill="#ED8686" fill-opacity="1" stroke="none"></path>
    <path d="M 335.232 480 L 350.3086 480 L 350.3086 369.75 L 335.232 369.75 L 335.232 480 Z" fill="#ED8686" fill-opacity="1" stroke="none"></path>
    <path d="M 459.392 480 L 474.4686 480 L 474.4686 308.745 L 459.392 308.745 L 459.392 480 Z" fill="#ED8686" fill-opacity="1" stroke="none"></path>
    <path d="M 583.552 480 L 598.6286 480 L 598.6286 235.665 L 583.552 235.665 L 583.552 480 Z" fill="#ED8686" fill-opacity="1" stroke="none"></path>
    <path d="M 105.0039 480 L 120.0805 480 L 120.0805 459.105 L 105.0039 459.105 L 105.0039 480 Z" fill="#69BC99" fill-opacity="1" stroke="none"></path>
    <path d="M 229.1639 480 L 244.2405 480 L 244.2405 359.145 L 229.1639 359.145 L 229.1639 480 Z" fill="#69BC99" fill-opacity="1" stroke="none"></path>
    <path d="M 353.3239 480 L 368.4005 480 L 368.4005 339.72 L 353.3239 339.72 L 353.3239 480 Z" fill="#69BC99" fill-opacity="1" stroke="none"></path>
    <path d="M 477.4839 480 L 492.5605 480 L 492.5605 330.585 L 477.4839 330.585 L 477.4839 480 Z" fill="#69BC99" fill-opacity="1" stroke="none"></path>
    <path d="M 601.6439 480 L 616.7205 480 L 616.7205 312.105 L 601.6439 312.105 L 601.6439 480 Z" fill="#69BC99" fill-opacity="1" stroke="none"></path>
    <path d="M 123.0958 480 L 138.1723 480 L 138.1723 463.725 L 123.0958 463.725 L 123.0958 480 Z" fill="#5470C6" fill-opacity="1" stroke="none"></path>
    <path d="M 247.2558 480 L 262.3323 480 L 262.3323 409.44 L 247.2558 409.44 L 247.2558 480 Z" fill="#5470C6" fill-opacity="1" stroke="none"></path>
    <path d="M 371.4158 480 L 386.4923 480 L 386.4923 366.39 L 371.4158 366.39 L 371.4158 480 Z" fill="#5470C6" fill-opacity="1" stroke="none"></path>
    <path d="M 495.5758 480 L 510.6523 480 L 510.6523 413.115 L 495.5758 413.115 L 495.5758 480 Z" fill="#5470C6" fill-opacity="1" stroke="none"></path>
    <path d="M 619.7358 480 L 634.8123 480 L 634.8123 412.38 L 619.7358 412.38 L 619.7358 480 Z" fill="#5470C6" fill-opacity="1" stroke="none"></path>
    <path d="M 141.1877 480 L 156.2642 480 L 156.2642 463.725 L 141.1877 463.725 L 141.1877 480 Z" fill="#91CC75" fill-opacity="1" stroke="none"></path>
    <path d="M 265.3477 480 L 280.4242 480 L 280.4242 407.34 L 265.3477 407.34 L 265.3477 480 Z" fill="#91CC75" fill-opacity="1" stroke="none"></path>
    <path d="M 389.5077 480 L 404.5842 480 L 404.5842 378.57 L 389.5077 378.57 L 389.5077 480 Z" fill="#91CC75" fill-opacity="1" stroke="none"></path>
    <path d="M 513.6677 480 L 528.7442 480 L 528.7442 387.6 L 513.6677 387.6 L 513.6677 480 Z" fill="#91CC75" fill-opacity="1" stroke="none"></path>
    <path d="M 637.8277 480 L 652.9042 480 L 652.9042 416.37 L 637.8277 416.37 L 637.8277 480 Z" fill="#91CC75" fill-opacity="1" stroke="none"></path>
    <path d="M 159.2795 480 L 174.3561 480 L 174.3561 425.4 L 159.2795 425.4 L 159.2795 480 Z" fill="#FAC858" fill-opacity="1" stroke="none"></path>
    <path d="M 283.4395 480 L 298.5161 480 L 298.5161 259.08 L 283.4395 259.08 L 283.4395 480 Z" fill="#FAC858" fill-opacity="1" stroke="none"></path>
    <path d="M 407.5995 480 L 422.6761 480 L 422.6761 205.32 L 407.5995 205.32 L 407.5995 480 Z" fill="#FAC858" fill-opacity="1" stroke="none"></path>
    <path d="M 531.7595 480 L 546.8361 480 L 546.8361 328.065 L 531.7595 328.065 L 531.7595 480 Z" fill="#FAC858" fill-opacity="1" stroke="none"></path>
    <path d="M 655.9195 480 L 670.9961 480 L 670.9961 311.265 L 655.9195 311.265 L 655.9195 480 Z" fill="#FAC858" fill-opacity="1" stroke="none"></path>
    <path d="M 177.3714 480 L 192.448 480 L 192.448 480 L 177.3714 480 L 177.3714 480 Z" fill="#EE6666" fill-opacity="1" stroke="none"></path>
    <path d="M 301.5314 480 L 316.608 480 L 316.608 480 L 301.5314 480 L 301.5314 480 Z" fill="#EE6666" fill-opacity="1" stroke="none"></path>
    <path d="M 425.6914 480 L 440.768 480 L 440.768 480 L 425.6914 480 L 425.6914 480 Z" fill="#EE6666" fill-opacity="1" stroke="none"></path>
    <path d="M 549.8514 480 L 564.928 480 L 564.928 480 L 549.8514 480 L 549.8514 480 Z" fill="#EE6666" fill-opacity="1" stroke="none"></path>
    <path d="M 674.0114 480 L 689.088 480 L 689.088 480 L 674.0114 480 L 674.0114 480 Z" fill="#EE6666" fill-opacity="1" stroke="none"></path>
    <path d="M -5 -5 L 409 -5 L 409 19 L -5 19 L -5 -5 Z" fill="rgb(0,0,0)" fill-opacity="0" stroke="#CCCCCC" stroke-width="0px" paint-order="fill" stroke-opacity="1" stroke-dasharray="none" stroke-linecap="butt" stroke-miterlimit="10" transform="matrix(1,0,0,1,186,98.5)"></path>
    <path d="M 3.5 0 L 21.5 0 A 3.5 3.5 0 0 1 25 3.5 L 25 10.5 A 3.5 3.5 0 0 1 21.5 14 L 3.5 14 A 3.5 3.5 0 0 1 0 10.5 L 0 3.5 A 3.5 3.5 0 0 1 3.5 0" fill="#ED8686" fill-opacity="1" stroke="none" transform="matrix(1,0,0,1,186,98.5)"></path>
    <text xml:space="preserve" style="font: 12px sans-serif;" fill="#333333" fill-opacity="1" stroke="none" transform="matrix(1,0,0,1,186,98.5)" dominant-baseline="central" text-anchor="start" x="30" y="7">4 and more bids</text>
    <path d="M 3.5 0 L 21.5 0 A 3.5 3.5 0 0 1 25 3.5 L 25 10.5 A 3.5 3.5 0 0 1 21.5 14 L 3.5 14 A 3.5 3.5 0 0 1 0 10.5 L 0 3.5 A 3.5 3.5 0 0 1 3.5 0" fill="#69BC99" fill-opacity="1" stroke="none" transform="matrix(1,0,0,1,312,98.5)"></path>
    <text xml:space="preserve" style="font: 12px sans-serif;" fill="#333333" fill-opacity="1" stroke="none" transform="matrix(1,0,0,1,312,98.5)" dominant-baseline="central" text-anchor="start" x="30" y="7">3 bids</text>
    <path d="M 3.5 0 L 21.5 0 A 3.5 3.5 0 0 1 25 3.5 L 25 10.5 A 3.5 3.5 0 0 1 21.5 14 L 3.5 14 A 3.5 3.5 0 0 1 0 10.5 L 0 3.5 A 3.5 3.5 0 0 1 3.5 0" fill="#5470C6" fill-opacity="1" stroke="none" transform="matrix(1,0,0,1,384,98.5)"></path>
    <text xml:space="preserve" style="font: 12px sans-serif;" fill="#333333" fill-opacity="1" stroke="none" transform="matrix(1,0,0,1,384,98.5)" dominant-baseline="central" text-anchor="start" x="30" y="7">1 bids</text>
    <path d="M 3.5 0 L 21.5 0 A 3.5 3.5 0 0 1 25 3.5 L 25 10.5 A 3.5 3.5 0 0 1 21.5 14 L 3.5 14 A 3.5 3.5 0 0 1 0 10.5 L 0 3.5 A 3.5 3.5 0 0 1 3.5 0" fill="#91CC75" fill-opacity="1" stroke="none" transform="matrix(1,0,0,1,456,98.5)"></path>
    <text xml:space="preserve" style="font: 12px sans-serif;" fill="#333333" fill-opacity="1" stroke="none" transform="matrix(1,0,0,1,456,98.5)" dominant-baseline="central" text-anchor="start" x="30" y="7">0 bids</text>
    <path d="M 3.5 0 L 21.5 0 A 3.5 3.5 0 0 1 25 3.5 L 25 10.5 A 3.5 3.5 0 0 1 21.5 14 L 3.5 14 A 3.5 3.5 0 0 1 0 10.5 L 0 3.5 A 3.5 3.5 0 0 1 3.5 0" fill="#FAC858" fill-opacity="1" stroke="none" transform="matrix(1,0,0,1,528,98.5)"></path>
    <text xml:space="preserve" style="font: 12px sans-serif;" fill="#333333" fill-opacity="1" stroke="none" transform="matrix(1,0,0,1,528,98.5)" dominant-baseline="central" text-anchor="start" x="30" y="7">2 bids</text>
    <path d="M -176 -5 L 176 -5 L 176 45 L -176 45 L -176 -5 Z" fill="rgb(0,0,0)" fill-opacity="0" stroke="#CCCCCC" stroke-width="0px" paint-order="fill" stroke-opacity="1" stroke-dasharray="none" stroke-linecap="butt" stroke-miterlimit="10" transform="matrix(1,0,0,1,388,5)"></path>
    <text xml:space="preserve" style="font: bold 18px sans-serif;" fill="#464646" fill-opacity="1" stroke="none" transform="matrix(1,0,0,1,388,5)" dominant-baseline="central" text-anchor="middle" x="0" y="9">Proportion of number of bids per tender</text>
    <text xml:space="preserve" style="font: 12px sans-serif;" fill="#6E7079" fill-opacity="1" stroke="none" transform="matrix(1,0,0,1,388,5)" dominant-baseline="central" text-anchor="middle" x="0" y="34">Subtitle</text>
  </g>
</svg>