<svg width="149" height="149" viewBox="0 0 149 149" fill="none" xmlns="http://www.w3.org/2000/svg">
<circle cx="74.5" cy="74.5" r="73.5" stroke="#045105" stroke-width="2"/>
<g clip-path="url(#clip0_671:878)">
<path d="M111.687 69.1866C110.509 69.1875 109.366 69.5792 108.436 70.3004C107.505 71.0215 106.841 72.0312 106.547 73.171H99.7335C99.4305 67.4037 97.1512 61.9165 93.2788 57.6319L98.1331 52.7776C99.2469 53.4341 100.562 53.6618 101.832 53.4181C103.102 53.1744 104.239 52.476 105.031 51.4538C105.822 50.4316 106.214 49.1557 106.132 47.8653C106.051 46.5749 105.501 45.3586 104.587 44.4444C103.673 43.5301 102.456 42.9806 101.166 42.899C99.8757 42.8173 98.5998 43.209 97.5776 44.0007C96.5553 44.7924 95.8569 45.9298 95.6132 47.1995C95.3695 48.4693 95.5973 49.7844 96.2538 50.8983L91.3663 55.7526C87.0817 51.8801 81.5945 49.6009 75.8272 49.2979V42.4514C77.0792 42.1282 78.1703 41.3594 78.896 40.2892C79.6217 39.2191 79.9322 37.9209 79.7692 36.6382C79.6063 35.3555 78.9812 34.1762 78.011 33.3215C77.0407 32.4667 75.7921 31.9951 74.4991 31.9951C73.2061 31.9951 71.9574 32.4667 70.9872 33.3215C70.017 34.1762 69.3918 35.3555 69.2289 36.6382C69.066 37.9209 69.3765 39.2191 70.1022 40.2892C70.8279 41.3594 71.919 42.1282 73.171 42.4514V49.2979C67.4037 49.6009 61.9165 51.8801 57.6319 55.7526L52.7776 50.8983C53.4341 49.7844 53.6618 48.4693 53.4181 47.1995C53.1744 45.9298 52.476 44.7924 51.4538 44.0007C50.4316 43.209 49.1557 42.8173 47.8653 42.899C46.5749 42.9806 45.3586 43.5301 44.4444 44.4444C43.5301 45.3586 42.9806 46.5749 42.899 47.8653C42.8173 49.1557 43.209 50.4316 44.0007 51.4538C44.7924 52.476 45.9298 53.1744 47.1995 53.4181C48.4693 53.6618 49.7844 53.4341 50.8983 52.7776L55.7526 57.6319C51.8801 61.9165 49.6009 67.4037 49.2979 73.171H42.4514C42.1282 71.919 41.3594 70.8279 40.2892 70.1022C39.2191 69.3765 37.9209 69.066 36.6382 69.2289C35.3555 69.3918 34.1762 70.017 33.3215 70.9872C32.4667 71.9574 31.9951 73.2061 31.9951 74.4991C31.9951 75.7921 32.4667 77.0407 33.3215 78.011C34.1762 78.9812 35.3555 79.6063 36.6382 79.7692C37.9209 79.9322 39.2191 79.6217 40.2892 78.896C41.3594 78.1703 42.1282 77.0792 42.4514 75.8272H49.2979C49.6009 81.5945 51.8801 87.0817 55.7526 91.3663L50.8983 96.2206C49.7844 95.5641 48.4693 95.3363 47.1995 95.58C45.9298 95.8237 44.7924 96.5221 44.0007 97.5444C43.209 98.5666 42.8173 99.8425 42.899 101.133C42.9806 102.423 43.5301 103.64 44.4444 104.554C45.3586 105.468 46.5749 106.018 47.8653 106.099C49.1557 106.181 50.4316 105.789 51.4538 104.997C52.476 104.206 53.1744 103.068 53.4181 101.799C53.6618 100.529 53.4341 99.2138 52.7776 98.0999L57.6319 93.2456C61.9118 97.1301 67.3995 99.4213 73.171 99.7335V106.58C71.919 106.903 70.8279 107.672 70.1022 108.742C69.3765 109.812 69.066 111.11 69.2289 112.393C69.3918 113.676 70.017 114.855 70.9872 115.71C71.9574 116.565 73.2061 117.036 74.4991 117.036C75.7921 117.036 77.0407 116.565 78.011 115.71C78.9812 114.855 79.6063 113.676 79.7692 112.393C79.9322 111.11 79.6217 109.812 78.896 108.742C78.1703 107.672 77.0792 106.903 75.8272 106.58V99.7335C81.5945 99.4305 87.0817 97.1512 91.3663 93.2788L96.2206 98.1331C95.5641 99.2469 95.3363 100.562 95.58 101.832C95.8237 103.102 96.5221 104.239 97.5444 105.031C98.5666 105.822 99.8425 106.214 101.133 106.132C102.423 106.051 103.64 105.501 104.554 104.587C105.468 103.673 106.018 102.456 106.099 101.166C106.181 99.8757 105.789 98.5998 104.997 97.5776C104.206 96.5553 103.068 95.8569 101.799 95.6132C100.529 95.3695 99.2138 95.5973 98.0999 96.2538L93.2456 91.3663C97.1301 87.0863 99.4213 81.5987 99.7335 75.8272H106.58C106.829 76.7908 107.343 77.6651 108.065 78.3505C108.786 79.036 109.686 79.5049 110.661 79.704C111.636 79.9031 112.647 79.8244 113.58 79.4767C114.512 79.129 115.328 78.5263 115.935 77.7374C116.542 76.9485 116.915 76.0051 117.011 75.0146C117.108 74.0241 116.924 73.0264 116.481 72.1352C116.039 71.2439 115.354 70.495 114.507 69.9737C113.659 69.4523 112.682 69.1796 111.687 69.1866ZM98.9167 46.3229C99.3509 45.8881 99.9225 45.6174 100.534 45.5568C101.146 45.4962 101.759 45.6495 102.27 45.9906C102.781 46.3317 103.159 46.8395 103.337 47.4274C103.516 48.0154 103.485 48.6471 103.251 49.215C103.016 49.7829 102.591 50.2518 102.05 50.5418C101.508 50.8319 100.882 50.9251 100.28 50.8057C99.6768 50.6863 99.1341 50.3615 98.7439 49.8868C98.3537 49.4121 98.1402 48.8167 98.1397 48.2022C98.1394 47.8533 98.2079 47.5077 98.3412 47.1853C98.4745 46.8628 98.6701 46.5698 98.9167 46.3229ZM71.8428 37.3116C71.8428 36.7862 71.9986 36.2727 72.2905 35.8358C72.5824 35.399 72.9972 35.0586 73.4826 34.8575C73.9679 34.6565 74.502 34.6039 75.0173 34.7064C75.5326 34.8089 76.0059 35.0618 76.3773 35.4333C76.7488 35.8048 77.0018 36.2781 77.1043 36.7934C77.2068 37.3086 77.1542 37.8427 76.9531 38.3281C76.7521 38.8134 76.4116 39.2283 75.9748 39.5202C75.538 39.812 75.0244 39.9678 74.4991 39.9678C73.7946 39.9678 73.119 39.688 72.6208 39.1898C72.1227 38.6917 71.8428 38.0161 71.8428 37.3116ZM46.3229 50.0815C45.8245 49.5831 45.5445 48.9071 45.5445 48.2022C45.5445 47.4973 45.8245 46.8213 46.3229 46.3229C46.8213 45.8245 47.4973 45.5445 48.2022 45.5445C48.9071 45.5445 49.5831 45.8245 50.0815 46.3229C50.5799 46.8213 50.8599 47.4973 50.8599 48.2022C50.8599 48.9071 50.5799 49.5831 50.0815 50.0815C49.5831 50.5799 48.9071 50.8599 48.2022 50.8599C47.4973 50.8599 46.8213 50.5799 46.3229 50.0815ZM37.3116 77.1553C36.7862 77.1553 36.2727 76.9995 35.8358 76.7077C35.399 76.4158 35.0586 76.0009 34.8575 75.5156C34.6565 75.0302 34.6039 74.4961 34.7064 73.9809C34.8089 73.4656 35.0618 72.9923 35.4333 72.6208C35.8048 72.2493 36.2781 71.9964 36.7934 71.8939C37.3086 71.7914 37.8427 71.844 38.3281 72.045C38.8134 72.2461 39.2283 72.5865 39.5202 73.0233C39.812 73.4602 39.9678 73.9737 39.9678 74.4991C39.9678 75.2036 39.688 75.8792 39.1898 76.3773C38.6917 76.8755 38.0161 77.1553 37.3116 77.1553ZM50.0815 102.675C49.5831 103.174 48.9071 103.454 48.2022 103.454C47.4973 103.454 46.8213 103.174 46.3229 102.675C45.8245 102.177 45.5445 101.501 45.5445 100.796C45.5445 100.091 45.8245 99.4151 46.3229 98.9167C46.5697 98.6699 46.8627 98.4741 47.1851 98.3405C47.5076 98.207 47.8532 98.1382 48.2022 98.1382C48.5512 98.1382 48.8968 98.207 49.2193 98.3405C49.5417 98.4741 49.8347 98.6699 50.0815 98.9167C50.3283 99.1634 50.5241 99.4564 50.6576 99.7789C50.7912 100.101 50.8599 100.447 50.8599 100.796C50.8599 101.145 50.7912 101.491 50.6576 101.813C50.5241 102.135 50.3283 102.428 50.0815 102.675ZM77.1553 111.687C77.1553 112.212 76.9995 112.725 76.7077 113.162C76.4158 113.599 76.0009 113.94 75.5156 114.141C75.0302 114.342 74.4961 114.394 73.9809 114.292C73.4656 114.189 72.9923 113.936 72.6208 113.565C72.2493 113.193 71.9964 112.72 71.8939 112.205C71.7914 111.69 71.844 111.155 72.045 110.67C72.2461 110.185 72.5865 109.77 73.0233 109.478C73.4602 109.186 73.9737 109.03 74.4991 109.03C75.2036 109.03 75.8792 109.31 76.3773 109.808C76.8755 110.306 77.1553 110.982 77.1553 111.687ZM102.675 98.9167C103.174 99.4151 103.454 100.091 103.454 100.796C103.454 101.501 103.174 102.177 102.675 102.675C102.177 103.174 101.501 103.454 100.796 103.454C100.091 103.454 99.4151 103.174 98.9167 102.675C98.4182 102.177 98.1382 101.501 98.1382 100.796C98.1382 100.091 98.4182 99.4151 98.9167 98.9167C99.4151 98.4182 100.091 98.1382 100.796 98.1382C101.501 98.1382 102.177 98.4182 102.675 98.9167ZM74.4991 97.0772C70.0335 97.0772 65.6683 95.753 61.9553 93.2721C58.2424 90.7912 55.3485 87.265 53.6396 83.1394C51.9307 79.0137 51.4836 74.474 52.3548 70.0943C53.226 65.7146 55.3763 61.6915 58.5339 58.5339C61.6915 55.3763 65.7146 53.226 70.0943 52.3548C74.474 51.4836 79.0137 51.9307 83.1394 53.6396C87.265 55.3485 90.7912 58.2424 93.2721 61.9553C95.753 65.6683 97.0772 70.0335 97.0772 74.4991C97.0772 80.4872 94.6984 86.23 90.4642 90.4642C86.23 94.6984 80.4872 97.0772 74.4991 97.0772ZM111.687 77.1553C111.161 77.1553 110.648 76.9995 110.211 76.7077C109.774 76.4158 109.434 76.0009 109.233 75.5156C109.031 75.0302 108.979 74.4961 109.081 73.9809C109.184 73.4656 109.437 72.9923 109.808 72.6208C110.18 72.2493 110.653 71.9964 111.168 71.8939C111.684 71.7914 112.218 71.844 112.703 72.045C113.188 72.2461 113.603 72.5865 113.895 73.0233C114.187 73.4602 114.343 73.9737 114.343 74.4991C114.343 75.2036 114.063 75.8792 113.565 76.3773C113.067 76.8755 112.391 77.1553 111.687 77.1553Z" fill="#2B582B"/>
<path d="M58.7883 70.7417C58.0459 71.4849 57.5405 72.4315 57.336 73.4619C57.1315 74.4922 57.2371 75.5601 57.6393 76.5305C58.0416 77.5009 58.7225 78.3302 59.596 78.9137C60.4695 79.4972 61.4964 79.8086 62.5469 79.8086C63.5973 79.8086 64.6242 79.4972 65.4977 78.9137C66.3712 78.3302 67.0522 77.5009 67.4544 76.5305C67.8567 75.5601 67.9622 74.4922 67.7577 73.4619C67.5532 72.4315 67.0478 71.4849 66.3055 70.7417C65.8121 70.2477 65.2262 69.8559 64.5812 69.5886C63.9363 69.3212 63.245 69.1836 62.5469 69.1836C61.8487 69.1836 61.1574 69.3212 60.5125 69.5886C59.8676 69.8559 59.2817 70.2477 58.7883 70.7417ZM64.4262 76.3796C64.0546 76.7508 63.5813 77.0034 63.0661 77.1057C62.5509 77.208 62.017 77.1552 61.5318 76.954C61.0466 76.7529 60.6319 76.4125 60.3402 75.9757C60.0484 75.5389 59.8927 75.0255 59.8927 74.5003C59.8927 73.975 60.0484 73.4616 60.3402 73.0248C60.6319 72.5881 61.0466 72.2476 61.5318 72.0465C62.017 71.8454 62.5509 71.7926 63.0661 71.8948C63.5813 71.9971 64.0546 72.2498 64.4262 72.621C64.6731 72.8677 64.8691 73.1606 65.0027 73.4831C65.1364 73.8056 65.2052 74.1512 65.2052 74.5003C65.2052 74.8493 65.1364 75.195 65.0027 75.5175C64.8691 75.8399 64.6731 76.1329 64.4262 76.3796Z" fill="#2B582B"/>
<path d="M70.7414 58.7886C69.999 59.5318 69.4937 60.4784 69.2891 61.5087C69.0846 62.5391 69.1902 63.607 69.5925 64.5773C69.9947 65.5477 70.6756 66.3771 71.5491 66.9606C72.4227 67.544 73.4495 67.8555 74.5 67.8555C75.5505 67.8555 76.5773 67.544 77.4509 66.9606C78.3244 66.3771 79.0053 65.5477 79.4075 64.5773C79.8098 63.607 79.9154 62.5391 79.7109 61.5087C79.5063 60.4784 79.001 59.5318 78.2586 58.7886C77.7652 58.2946 77.1793 57.9028 76.5344 57.6354C75.8894 57.3681 75.1981 57.2305 74.5 57.2305C73.8019 57.2305 73.1106 57.3681 72.4656 57.6354C71.8207 57.9028 71.2348 58.2946 70.7414 58.7886ZM76.3793 64.4264C76.0077 64.7976 75.5344 65.0503 75.0192 65.1526C74.504 65.2548 73.9701 65.2021 73.4849 65.0009C72.9997 64.7998 72.585 64.4593 72.2933 64.0226C72.0016 63.5858 71.8458 63.0724 71.8458 62.5471C71.8458 62.0219 72.0016 61.5085 72.2933 61.0717C72.585 60.635 72.9997 60.2945 73.4849 60.0934C73.9701 59.8922 74.504 59.8395 75.0192 59.9417C75.5344 60.044 76.0077 60.2967 76.3793 60.6679C76.6263 60.9145 76.8222 61.2075 76.9559 61.53C77.0895 61.8524 77.1583 62.1981 77.1583 62.5471C77.1583 62.8962 77.0895 63.2419 76.9559 63.5643C76.8222 63.8868 76.6263 64.1798 76.3793 64.4264Z" fill="#2B582B"/>
<path d="M82.6945 70.7417C81.9522 71.4849 81.4468 72.4315 81.2423 73.4619C81.0378 74.4922 81.1433 75.5601 81.5456 76.5305C81.9478 77.5009 82.6288 78.3302 83.5023 78.9137C84.3758 79.4972 85.4027 79.8086 86.4531 79.8086C87.5036 79.8086 88.5305 79.4972 89.404 78.9137C90.2775 78.3302 90.9584 77.5009 91.3607 76.5305C91.7629 75.5601 91.8685 74.4922 91.664 73.4619C91.4595 72.4315 90.9541 71.4849 90.2117 70.7417C89.7183 70.2477 89.1324 69.8559 88.4875 69.5886C87.8426 69.3212 87.1513 69.1836 86.4531 69.1836C85.755 69.1836 85.0637 69.3212 84.4188 69.5886C83.7738 69.8559 83.1879 70.2477 82.6945 70.7417ZM88.3324 76.3796C87.9608 76.7508 87.4875 77.0034 86.9723 77.1057C86.4572 77.208 85.9232 77.1552 85.438 76.954C84.9528 76.7529 84.5382 76.4125 84.2464 75.9757C83.9547 75.5389 83.799 75.0255 83.799 74.5003C83.799 73.975 83.9547 73.4616 84.2464 73.0248C84.5382 72.5881 84.9528 72.2476 85.438 72.0465C85.9232 71.8454 86.4572 71.7926 86.9723 71.8948C87.4875 71.9971 87.9608 72.2498 88.3324 72.621C88.5794 72.8677 88.7753 73.1606 88.909 73.4831C89.0427 73.8056 89.1115 74.1512 89.1115 74.5003C89.1115 74.8493 89.0427 75.195 88.909 75.5175C88.7753 75.8399 88.5794 76.1329 88.3324 76.3796Z" fill="#2B582B"/>
<path d="M70.7414 82.6948C69.999 83.438 69.4937 84.3846 69.2891 85.415C69.0846 86.4453 69.1902 87.5132 69.5925 88.4836C69.9947 89.454 70.6756 90.2833 71.5491 90.8668C72.4227 91.4503 73.4495 91.7617 74.5 91.7617C75.5505 91.7617 76.5773 91.4503 77.4509 90.8668C78.3244 90.2833 79.0053 89.454 79.4075 88.4836C79.8098 87.5132 79.9154 86.4453 79.7109 85.415C79.5063 84.3846 79.001 83.438 78.2586 82.6948C77.7652 82.2009 77.1793 81.809 76.5344 81.5417C75.8894 81.2743 75.1981 81.1367 74.5 81.1367C73.8019 81.1367 73.1106 81.2743 72.4656 81.5417C71.8207 81.809 71.2348 82.2009 70.7414 82.6948ZM76.3793 88.3327C76.0077 88.7039 75.5344 88.9566 75.0192 89.0588C74.504 89.1611 73.9701 89.1083 73.4849 88.9072C72.9997 88.706 72.585 88.3656 72.2933 87.9288C72.0016 87.4921 71.8458 86.9786 71.8458 86.4534C71.8458 85.9282 72.0016 85.4147 72.2933 84.978C72.585 84.5412 72.9997 84.2008 73.4849 83.9996C73.9701 83.7985 74.504 83.7457 75.0192 83.848C75.5344 83.9502 76.0077 84.2029 76.3793 84.5741C76.6263 84.8208 76.8222 85.1137 76.9559 85.4362C77.0895 85.7587 77.1583 86.1043 77.1583 86.4534C77.1583 86.8025 77.0895 87.1481 76.9559 87.4706C76.8222 87.793 76.6263 88.086 76.3793 88.3327Z" fill="#2B582B"/>
</g>
<defs>
<clipPath id="clip0_671:878">
<rect width="85" height="85" fill="white" transform="translate(32 32)"/>
</clipPath>
</defs>
</svg>
