<svg width="22" height="27" viewBox="0 0 22 27" fill="none" xmlns="http://www.w3.org/2000/svg">
<path d="M17.05 6.75H21.34C21.3945 6.7501 21.4477 6.73366 21.493 6.70276C21.5384 6.67186 21.5737 6.6279 21.5945 6.57645C21.6154 6.52499 21.6208 6.46837 21.6102 6.41374C21.5995 6.35912 21.5733 6.30896 21.5347 6.26962L15.8697 0.4815C15.8316 0.442389 15.783 0.415624 15.7301 0.404544C15.6772 0.393464 15.6223 0.39856 15.5722 0.419196C15.5221 0.439832 15.4791 0.475094 15.4484 0.520584C15.4178 0.566075 15.401 0.61978 15.4 0.675V5.0625C15.4 5.51005 15.5738 5.93928 15.8833 6.25574C16.1927 6.57221 16.6124 6.75 17.05 6.75Z" fill="#F2C94C"/>
<path d="M21.725 7.875H17.05C16.3207 7.875 15.6212 7.57868 15.1055 7.05124C14.5897 6.52379 14.3 5.80842 14.3 5.0625V0.282375C14.3001 0.245346 14.2931 0.208653 14.2794 0.1744C14.2656 0.140147 14.2454 0.109009 14.2198 0.0827736C14.1943 0.0565378 14.1639 0.0357204 14.1305 0.021516C14.0971 0.00731156 14.0612 -2.96225e-07 14.025 0H2.2C1.61652 0 1.05694 0.237053 0.644365 0.65901C0.231785 1.08097 0 1.65326 0 2.25V24.75C0 25.3467 0.231785 25.919 0.644365 26.341C1.05694 26.7629 1.61652 27 2.2 27H19.8C20.3835 27 20.9431 26.7629 21.3556 26.341C21.7682 25.919 22 25.3467 22 24.75V8.15738C22.0001 8.12035 21.9931 8.08365 21.9794 8.0494C21.9656 8.01515 21.9454 7.98401 21.9198 7.95777C21.8943 7.93154 21.8639 7.91072 21.8305 7.89652C21.7971 7.88231 21.7612 7.875 21.725 7.875ZM7.15 21.2355C7.33234 21.2355 7.5072 21.3096 7.63614 21.4414C7.76507 21.5733 7.8375 21.7521 7.8375 21.9386C7.8375 22.1251 7.76507 22.3039 7.63614 22.4358C7.5072 22.5677 7.33234 22.6417 7.15 22.6418C6.09245 22.6417 5.07821 22.2121 4.33041 21.4473C3.58261 20.6825 3.1625 19.6452 3.1625 18.5636C3.1625 17.482 3.58261 16.4448 4.33041 15.68C5.07821 14.9152 6.09245 14.4855 7.15 14.4855C7.33234 14.4855 7.5072 14.5596 7.63614 14.6914C7.76507 14.8233 7.8375 15.0021 7.8375 15.1886C7.8375 15.3751 7.76507 15.5539 7.63614 15.6858C7.5072 15.8177 7.33234 15.8918 7.15 15.8918C6.45712 15.8918 5.79262 16.1733 5.30268 16.6743C4.81274 17.1754 4.5375 17.855 4.5375 18.5636C4.5375 19.2722 4.81274 19.9519 5.30268 20.4529C5.79262 20.954 6.45712 21.2355 7.15 21.2355ZM10.3697 17.289L12.3937 18.6682C12.7724 18.9265 13.0598 19.3026 13.2134 19.7408C13.367 20.179 13.3786 20.6561 13.2467 21.1016C13.1147 21.5471 12.8461 21.9374 12.4805 22.2148C12.115 22.4921 11.6719 22.6418 11.2167 22.6418H9.35C9.16766 22.6418 8.99279 22.5677 8.86386 22.4358C8.73493 22.3039 8.6625 22.1251 8.6625 21.9386C8.6625 21.7521 8.73493 21.5733 8.86386 21.4414C8.99279 21.3096 9.16766 21.2355 9.35 21.2355H11.22C11.38 21.2354 11.5358 21.1827 11.6643 21.0852C11.7927 20.9876 11.8871 20.8504 11.9335 20.6938C11.9799 20.5371 11.9757 20.3694 11.9217 20.2153C11.8677 20.0613 11.7667 19.9291 11.6336 19.8383L9.6096 18.459C9.23092 18.2007 8.94355 17.8247 8.78994 17.3865C8.63633 16.9483 8.62465 16.4712 8.75662 16.0256C8.88859 15.5801 9.1572 15.1898 9.52276 14.9125C9.88832 14.6351 10.3314 14.4854 10.7866 14.4855H12.6566C12.8389 14.4855 13.0138 14.5596 13.1427 14.6914C13.2717 14.8233 13.3441 15.0021 13.3441 15.1886C13.3441 15.3751 13.2717 15.5539 13.1427 15.6858C13.0138 15.8177 12.8389 15.8918 12.6566 15.8918H10.78C10.62 15.8918 10.4642 15.9445 10.3357 16.0421C10.2073 16.1396 10.1129 16.2769 10.0665 16.4335C10.0201 16.5901 10.0243 16.7579 10.0783 16.9119C10.1323 17.066 10.2333 17.1982 10.3664 17.289H10.3697ZM18.8397 16.8761C18.8349 18.8534 18.2073 20.7766 17.05 22.3605C16.986 22.4478 16.9029 22.5187 16.8075 22.5675C16.712 22.6163 16.6067 22.6418 16.5 22.6418C16.3933 22.6418 16.288 22.6163 16.1925 22.5675C16.0971 22.5187 16.014 22.4478 15.95 22.3605C14.7932 20.776 14.1664 18.8524 14.1625 16.875V15.1875C14.1625 15.001 14.2349 14.8222 14.3639 14.6903C14.4928 14.5585 14.6677 14.4844 14.85 14.4844C15.0323 14.4844 15.2072 14.5585 15.3361 14.6903C15.4651 14.8222 15.5375 15.001 15.5375 15.1875V16.875C15.5403 18.0502 15.8035 19.2096 16.3075 20.2658C16.3314 20.2958 16.3616 20.3199 16.3959 20.3362C16.4302 20.3525 16.4676 20.3607 16.5055 20.36C16.5433 20.3594 16.5805 20.3499 16.6142 20.3324C16.6479 20.3149 16.6773 20.2898 16.7002 20.259C17.203 19.2048 17.4662 18.0479 17.4702 16.875V15.1875C17.4702 15.001 17.5426 14.8222 17.6716 14.6903C17.8005 14.5585 17.9754 14.4844 18.1577 14.4844C18.34 14.4844 18.5149 14.5585 18.6438 14.6903C18.7728 14.8222 18.8452 15.001 18.8452 15.1875L18.8397 16.8761Z" fill="#F2C94C"/>
</svg>
