<svg width="16" height="18" viewBox="0 0 16 18" fill="none" xmlns="http://www.w3.org/2000/svg">
<path d="M4.5 8.49477H4V9.49477H4.5V8.49477ZM11.5 9.49477H12V8.49477H11.5V9.49477ZM4.5 11.9286H4V12.9286H4.5V11.9286ZM11.5 12.9286H12V11.9286H11.5V12.9286ZM4.5 5.06843H4V6.06843H4.5V5.06843ZM11.5 6.06843H12V5.06843H11.5V6.06843ZM15 4.42857H15.5V4.21844L15.3499 4.07139L15 4.42857ZM11.5 1L11.8499 0.642821L11.7041 0.5H11.5V1ZM4.5 9.49477H11.5V8.49477H4.5V9.49477ZM4.5 12.9286H11.5V11.9286H4.5V12.9286ZM4.5 6.06843H11.5V5.06843H4.5V6.06843ZM13.8333 16.5H2.16667V17.5H13.8333V16.5ZM1.5 15.8571V2.14286H0.5V15.8571H1.5ZM14.5 4.42857V15.8571H15.5V4.42857H14.5ZM2.16667 1.5H11.5V0.5H2.16667V1.5ZM11.1501 1.35718L14.6501 4.78575L15.3499 4.07139L11.8499 0.642821L11.1501 1.35718ZM2.16667 16.5C1.78871 16.5 1.5 16.2025 1.5 15.8571H0.5C0.5 16.7741 1.25596 17.5 2.16667 17.5V16.5ZM13.8333 17.5C14.744 17.5 15.5 16.7741 15.5 15.8571H14.5C14.5 16.2025 14.2113 16.5 13.8333 16.5V17.5ZM1.5 2.14286C1.5 1.79749 1.78871 1.5 2.16667 1.5V0.5C1.25596 0.5 0.5 1.22586 0.5 2.14286H1.5Z" fill="#333333" stroke-width="1.5" />
</svg>
