<svg xmlns="http://www.w3.org/2000/svg" width="149" height="149" fill="none" viewBox="0 0 149 149">
  <path fill="#076775" d="M43.7708 37.6964v12.3688l18.9421-15.1674H46.6388c-1.5819 0-2.868 1.2552-2.868 2.7986Zm59.3322 0c0-1.5434-1.286-2.7986-2.868-2.7986H84.2488l18.8542 15.0974V37.6964ZM90.742 70.8425l6.4073 3.623c.0889.0224.3011.0615.6022.0615.2681 0 .4574-.0322.5378-.0505l4.8127-2.6V61.0413c-1.021-.1245-1.977-.4996-2.743-1.1124L73.4807 38.4073 46.6014 59.9291c-.7873.6311-1.7768 1.0075-2.8308 1.1194v10.2893l1.8743-.918c1.9847-.9725 4.332-1.486 6.7887-1.486 2.944 0 5.8078.7458 8.0649 2.1017l4.3036 2.5887V57.6018c0-.7739.6409-1.3993 1.434-1.3993h16.4912c.793 0 1.434.6254 1.434 1.3993v11.378c2.4021.1737 4.7051.8007 6.5807 1.8627Zm19.87 14.1543L99.5541 90.972c-.8906.4827-2.8309.4631-3.7099-.0321l-6.4874-3.6678c-3.4475-1.9519-8.551-2.1045-12.129-.3735l-8.5782 4.1573c-.9394.4561-2.9427.3751-3.8217-.1539l-5.7776-3.4745c-3.436-2.0641-8.5527-2.2725-12.1634-.5009l-12.5134 6.1291c-2.1224 1.0412-2.9814 3.564-1.916 5.6351.7556 1.4682 2.273 2.3162 3.8488 2.3162.6497 0 1.3077-.146 1.9273-.447l12.5148-6.1302c.9307-.4562 2.9154-.3792 3.79.1456l5.779 3.4745c3.4272 2.0601 8.5368 2.2811 12.1591.5277l8.5797-4.1573c.9695-.4703 3.056-.4129 3.9894.116l6.4874 3.6677c3.5118 1.989 8.641 2.033 12.192.1119l11.056-5.9752c2.078-1.1222 2.831-3.6775 1.68-5.7051-1.151-2.0291-3.771-2.7667-5.849-1.6388Z"/>
  <path fill="#076775" d="m110.612 98.9903-11.0579 5.9747c-.8906.482-2.8309.462-3.7099-.032l-6.4874-3.667c-3.4475-1.9526-8.551-2.1065-12.129-.374l-8.5782 4.157c-.9394.456-2.9427.375-3.8217-.154l-5.7776-3.474c-3.436-2.0641-8.5527-2.2725-12.1634-.501l-12.5134 6.129c-2.1224 1.041-2.9814 3.564-1.916 5.635.7556 1.468 2.273 2.316 3.8488 2.316.6497 0 1.3077-.146 1.9273-.446l12.5148-6.131c.9307-.456 2.9154-.379 3.79.146l5.779 3.474c3.4272 2.06 8.5368 2.28 12.1591.528l8.5797-4.158c.9695-.471 3.056-.412 3.9894.117l6.4874 3.667c3.5118 1.989 8.641 2.035 12.192.112l11.056-5.975c2.078-1.122 2.831-3.678 1.68-5.705-1.151-2.0306-3.771-2.7682-5.849-1.6387ZM42.3366 53.9287l-1.2848 1.0286c-.0575.046-.0989.098-.1492.1469-.9394.8817-.9394 2.1745 0 3.0562.0516.0488.0933.1008.1492.1469.3699.2953.8144.487 1.2848.5932.2652.0602.5349.1009.8073.1009.2109 0 .4202-.0224.6267-.0574.5362-.0923 1.0482-.3023 1.4656-.6367l28.2445-22.6161L101.725 58.306c.395.3162.875.515 1.378.6156.236.0461.474.0785.715.0785.242 0 .483-.0322.719-.0798.502-.1008.98-.2994 1.371-.6143.025-.0196.04-.042.063-.0615 1.063-.9082 1.063-2.3188 0-3.2268-.023-.0195-.038-.0419-.063-.0615l-1.371-1.0985-1.434-1.1475L80.8575 34.898l-1.7481-1.3993-1.7467-1.3993-1.7896-1.4331c-.555-.4438-1.3238-.6663-2.0924-.6663-.7685 0-1.5373.2225-2.0923.6661l-1.7897 1.433-1.7467 1.3993-1.748 1.3994L43.7708 52.78l-1.4342 1.1487Z"/>
  <path fill="#076775" d="M75.9988 70.3876c1.5746-.7641 3.3843-1.2329 5.2958-1.4034v-9.9844H67.6714v15.4221l8.3274-4.0343Z"/>
  <path fill="#076775" d="M32.5008 84.6737c.74 1.479 2.2428 2.3368 3.8045 2.3368.6325 0 1.2747-.1413 1.8801-.4366l12.5147-6.1291c.4245-.2084 1.0612-.3079 1.7167-.3079.8231 0 1.6763.1582 2.1754.4577l5.7776 3.4745c1.8656 1.1209 4.2348 1.6931 6.585 1.6931 1.9315 0 3.8517-.3862 5.4708-1.1698l8.5798-4.1574c.4532-.2197 1.1442-.3275 1.8526-.3275.8474 0 1.718.1526 2.2384.4464l6.4875 3.669c1.778 1.0047 3.9721 1.5084 6.1634 1.5084 2.1023 0 4.2017-.4646 5.9257-1.398l11.056-5.9752c2.056-1.1112 2.813-3.6608 1.691-5.6954-.77-1.3964-2.225-2.1871-3.726-2.1871-.687 0-1.384.1652-2.029.5151l-4.717 2.5483-1.576.8508-4.7649 2.5749c-.4461.242-1.1459.3609-1.8527.3609-.7456 0-1.497-.133-1.9603-.3931l-1.4814-.8382-5.0063-2.8295c-1.4899-.8424-3.2911-1.3294-5.1422-1.4904-.4274-.0363-.8548-.0741-1.2848-.0741-.0501 0-.1005.0069-.1492.0069-.4804.0041-.9595.0309-1.434.0826-1.4311.1554-2.8135.5192-4.0197 1.1027l-3.4087 1.6527-2.8881 1.3994-.3098.1497-1.9747.9571c-.3929.1888-.9708.2783-1.5732.2925-.0488.0013-.0934.0113-.1435.0113-.0804 0-.1592-.0085-.2394-.0113-.3828-.0139-.7585-.0587-1.1012-.1372-.3341-.0769-.6381-.179-.8648-.3133l-1.3265-.7976-4.4512-2.6769c-1.8598-1.1166-4.2189-1.6862-6.5607-1.6862-1.9444 0-3.8762.3918-5.5024 1.1881l-2.9426 1.4412-1.2822.6283-1.2747.6242-7.0119 3.4351c-2.1008 1.0271-2.9613 3.546-1.9201 5.6241Z"/>
  <circle cx="74.5" cy="74.5" r="73.5" stroke="#076775" stroke-width="2"/>
</svg>
