<svg width="149" height="149" viewBox="0 0 149 149" fill="none" xmlns="http://www.w3.org/2000/svg">
<circle cx="74.5" cy="74.5" r="73.5" stroke="#045105" stroke-width="2"/>
<path d="M56.9667 73.2585C53.4819 74.6791 50.3762 76.8922 47.8959 79.7224C45.4157 82.5526 43.6292 85.9219 42.6782 89.563C42.5844 89.9267 42.6388 90.3127 42.8296 90.6363C43.0203 90.9599 43.3317 91.1944 43.6954 91.2885C43.8115 91.3187 43.931 91.334 44.051 91.3338C44.3647 91.3334 44.6695 91.2289 44.9174 91.0366C45.1654 90.8443 45.3425 90.5751 45.4209 90.2713C46.2601 87.0583 47.8365 84.0852 50.0251 81.5877C52.2137 79.0903 54.9542 77.1372 58.0292 75.8836C58.2043 75.8156 58.3641 75.7134 58.4993 75.5831C58.6345 75.4528 58.7425 75.2968 58.8169 75.1244C58.8913 74.9519 58.9306 74.7664 58.9327 74.5786C58.9347 74.3908 58.8994 74.2045 58.8288 74.0304C58.7582 73.8564 58.6536 73.6981 58.5213 73.5649C58.389 73.4316 58.2314 73.326 58.0579 73.2542C57.8844 73.1824 57.6983 73.1457 57.5105 73.1465C57.3226 73.1472 57.1369 73.1853 56.9639 73.2585H56.9667Z" fill="#045105"/>
<path d="M66.0003 71.5C64.9943 71.4998 63.9894 71.5623 62.9913 71.687C62.6318 71.7297 62.3023 71.9084 62.0705 72.1863C61.8386 72.4643 61.722 72.8205 61.7444 73.1817C61.7669 73.543 61.9268 73.882 62.1914 74.1291C62.4559 74.3761 62.805 74.5126 63.1669 74.5104C63.2261 74.5101 63.2853 74.5063 63.344 74.4991C64.2251 74.3886 65.1123 74.3332 66.0003 74.3333C66.376 74.3333 66.7363 74.1841 67.002 73.9184C67.2677 73.6527 67.4169 73.2924 67.4169 72.9167C67.4169 72.5409 67.2677 72.1806 67.002 71.9149C66.7363 71.6493 66.376 71.5 66.0003 71.5Z" fill="#045105"/>
<path d="M84.4167 55.917H89.0605C89.2765 56.2933 89.5763 56.6148 89.9366 56.8566C90.2969 57.0983 90.7081 57.2538 91.1382 57.311C91.5683 57.3681 92.0058 57.3255 92.4168 57.1863C92.8277 57.047 93.2011 56.815 93.5079 56.5082C93.8147 56.2014 94.0467 55.828 94.1859 55.4171C94.3251 55.0061 94.3678 54.5686 94.3106 54.1385C94.2535 53.7084 94.098 53.2972 93.8562 52.9369C93.6145 52.5766 93.293 52.2768 92.9167 52.0608V44.5837C92.9167 44.2079 92.7674 43.8476 92.5017 43.5819C92.2361 43.3162 91.8757 43.167 91.5 43.167C91.1243 43.167 90.7639 43.3162 90.4983 43.5819C90.2326 43.8476 90.0833 44.2079 90.0833 44.5837V52.0608C89.6602 52.3083 89.308 52.6606 89.0605 53.0837H84.4167C84.0409 53.0837 83.6806 53.2329 83.4149 53.4986C83.1493 53.7643 83 54.1246 83 54.5003C83 54.876 83.1493 55.2364 83.4149 55.5021C83.6806 55.7677 84.0409 55.917 84.4167 55.917Z" fill="#045105"/>
<path d="M117 54.5C117 47.737 114.313 41.251 109.531 36.4688C104.749 31.6866 98.263 29 91.5 29C84.737 29 78.251 31.6866 73.4688 36.4688C68.6866 41.251 66 47.737 66 54.5C66.0117 55.9341 66.1396 57.3649 66.3825 58.7783C66.2556 58.7619 66.1279 58.7524 66 58.75C64.4971 58.75 63.0558 59.347 61.9931 60.4097C60.9304 61.4724 60.3333 62.9138 60.3333 64.4167C60.3358 65.0702 60.4557 65.7181 60.6875 66.3292C53.8271 67.559 47.6186 71.1644 43.1503 76.5134C38.682 81.8624 36.2391 88.6136 36.25 95.5833V97C35.1228 97 34.0418 97.4478 33.2448 98.2448C32.4478 99.0418 32 100.123 32 101.25C32 102.377 32.4478 103.458 33.2448 104.255C34.0418 105.052 35.1228 105.5 36.25 105.5H36.9017L42.1575 113.362C42.2858 113.557 42.4603 113.718 42.6654 113.829C42.8706 113.94 43.1 113.999 43.3333 114H88.6667C88.9 113.999 89.1294 113.94 89.3346 113.829C89.5397 113.718 89.7142 113.557 89.8425 113.362L95.0983 105.5H95.75C96.8772 105.5 97.9582 105.052 98.7552 104.255C99.5522 103.458 100 102.377 100 101.25C100 100.123 99.5522 99.0418 98.7552 98.2448C97.9582 97.4478 96.8772 97 95.75 97V95.5833C95.762 90.0715 94.2256 84.6671 91.3158 79.9858C91.3725 79.9858 91.4433 80 91.5 80C98.2606 79.9921 104.742 77.303 109.523 72.5225C114.303 67.7421 116.992 61.2606 117 54.5ZM66 61.5833C66.3758 61.5923 66.7462 61.6741 67.0908 61.8242C67.5164 63.2506 68.0712 64.6352 68.7483 65.9608C67.0426 65.8097 65.3273 65.8003 63.62 65.9325C63.324 65.4824 63.1663 64.9554 63.1667 64.4167C63.1689 63.6659 63.4681 62.9465 63.999 62.4157C64.5299 61.8848 65.2492 61.5856 66 61.5833ZM87.9017 111.167H44.0983L40.3158 105.5H91.6842L87.9017 111.167ZM97.1667 101.25C97.1667 101.626 97.0174 101.986 96.7517 102.252C96.4861 102.517 96.1257 102.667 95.75 102.667H36.25C35.8743 102.667 35.5139 102.517 35.2483 102.252C34.9826 101.986 34.8333 101.626 34.8333 101.25C34.8333 100.874 34.9826 100.514 35.2483 100.248C35.5139 99.9826 35.8743 99.8333 36.25 99.8333H95.75C96.1257 99.8333 96.4861 99.9826 96.7517 100.248C97.0174 100.514 97.1667 100.874 97.1667 101.25ZM92.9167 95.5833V97H39.0833V95.5833C39.0692 88.9373 41.519 82.5218 45.9592 77.5766C50.3994 72.6314 56.5149 69.5074 63.1242 68.8083C65.037 68.6242 66.963 68.6242 68.8758 68.8083C69.4142 68.865 69.995 68.9642 70.6042 69.0633C72.5825 71.9005 75.1174 74.3055 78.0545 76.132C80.9916 77.9586 84.2697 79.1686 87.6892 79.6883C91.097 84.2859 92.9303 89.8605 92.9167 95.5833ZM68.8333 54.5C68.8333 50.017 70.1627 45.6346 72.6534 41.9071C75.144 38.1796 78.684 35.2743 82.8258 33.5587C86.9676 31.8431 91.5251 31.3943 95.922 32.2689C100.319 33.1435 104.358 35.3023 107.528 38.4722C110.698 41.6422 112.857 45.681 113.731 50.078C114.606 54.4749 114.157 59.0324 112.441 63.1742C110.726 67.3159 107.82 70.856 104.093 73.3466C100.365 75.8373 95.983 77.1667 91.5 77.1667C85.4908 77.1588 79.7301 74.7682 75.4809 70.5191C71.2318 66.2699 68.8412 60.5092 68.8333 54.5Z" fill="#045105"/>
<path d="M91.4998 34.667C87.5772 34.667 83.7426 35.8302 80.481 38.0095C77.2195 40.1888 74.6774 43.2864 73.1762 46.9104C71.6751 50.5345 71.2823 54.5223 72.0476 58.3696C72.8129 62.2169 74.7018 65.7509 77.4756 68.5246C80.2493 71.2984 83.7833 73.1873 87.6306 73.9526C91.4778 74.7178 95.4657 74.3251 99.0897 72.8239C102.714 71.3228 105.811 68.7807 107.991 65.5191C110.17 62.2576 111.333 58.423 111.333 54.5003C111.328 49.2419 109.236 44.2005 105.518 40.4823C101.8 36.764 96.7582 34.6726 91.4998 34.667ZM103.768 61.5837C103.58 61.909 103.529 62.2957 103.627 62.6586C103.724 63.0215 103.961 63.331 104.287 63.5188L105.45 64.1903C104.292 65.8503 102.85 67.2925 101.19 68.4502L100.518 67.2872C100.33 66.9618 100.021 66.7244 99.6581 66.6271C99.2952 66.5299 98.9086 66.5808 98.5832 66.7687C98.2578 66.9565 98.0204 67.2659 97.9232 67.6289C97.8259 67.9918 97.8768 68.3784 98.0647 68.7038L98.7333 69.8627C96.9042 70.7298 94.9338 71.2601 92.9165 71.4281V70.0837C92.9165 69.7079 92.7673 69.3476 92.5016 69.0819C92.2359 68.8162 91.8756 68.667 91.4998 68.667C91.1241 68.667 90.7638 68.8162 90.4981 69.0819C90.2324 69.3476 90.0832 69.7079 90.0832 70.0837V71.4281C88.0659 71.2601 86.0955 70.7298 84.2663 69.8627L84.935 68.7038C85.1229 68.3784 85.1738 67.9918 85.0765 67.6289C84.9793 67.2659 84.7419 66.9565 84.4165 66.7687C84.0911 66.5808 83.7045 66.5299 83.3415 66.6271C82.9786 66.7244 82.6692 66.9618 82.4813 67.2872L81.8098 68.4502C80.1499 67.2925 78.7077 65.8503 77.5499 64.1903L78.713 63.5188C79.0384 63.331 79.2758 63.0215 79.373 62.6586C79.4703 62.2957 79.4194 61.909 79.2315 61.5837C79.0436 61.2583 78.7342 61.0209 78.3713 60.9236C78.0084 60.8264 77.6217 60.8773 77.2963 61.0652L76.1375 61.7338C75.2705 59.9047 74.7403 57.9342 74.5721 55.917H75.9165C76.2922 55.917 76.6526 55.7677 76.9182 55.5021C77.1839 55.2364 77.3332 54.8761 77.3332 54.5003C77.3332 54.1246 77.1839 53.7643 76.9182 53.4986C76.6526 53.2329 76.2922 53.0837 75.9165 53.0837H74.5721C74.738 51.0669 75.2659 49.0965 76.1304 47.2668L77.2893 47.9355C77.4507 48.0296 77.6291 48.0909 77.8143 48.1158C77.9995 48.1406 78.1878 48.1286 78.3683 48.0804C78.5488 48.0322 78.718 47.9488 78.8662 47.8349C79.0143 47.7211 79.1385 47.579 79.2315 47.417C79.4194 47.0916 79.4703 46.7049 79.373 46.342C79.2758 45.9791 79.0384 45.6697 78.713 45.4818L77.5499 44.8103C78.7077 43.1504 80.1499 41.7082 81.8098 40.5504L82.4813 41.7135C82.6692 42.0389 82.9786 42.2763 83.3415 42.3735C83.7045 42.4708 84.0911 42.4198 84.4165 42.232C84.7419 42.0441 84.9793 41.7347 85.0765 41.3718C85.1738 41.0089 85.1229 40.6222 84.935 40.2968L84.2663 39.138C86.0955 38.2708 88.0659 37.7406 90.0832 37.5726V38.917C90.0832 39.2927 90.2324 39.6531 90.4981 39.9187C90.7638 40.1844 91.1241 40.3337 91.4998 40.3337C91.8756 40.3337 92.2359 40.1844 92.5016 39.9187C92.7673 39.6531 92.9165 39.2927 92.9165 38.917V37.5726C94.9338 37.7406 96.9042 38.2708 98.7333 39.138L98.0647 40.2968C97.8768 40.6222 97.8259 41.0089 97.9232 41.3718C98.0204 41.7347 98.2578 42.0441 98.5832 42.232C98.9086 42.4198 99.2952 42.4708 99.6581 42.3735C100.021 42.2763 100.33 42.0389 100.518 41.7135L101.19 40.5504C102.85 41.7082 104.292 43.1504 105.45 44.8103L104.287 45.4818C103.961 45.6697 103.724 45.9791 103.627 46.342C103.529 46.7049 103.58 47.0916 103.768 47.417C103.956 47.7424 104.265 47.9798 104.628 48.077C104.991 48.1743 105.378 48.1233 105.703 47.9355L106.862 47.2668C107.724 49.0975 108.251 51.0674 108.419 53.0837H107.083C106.707 53.0837 106.347 53.2329 106.081 53.4986C105.816 53.7643 105.667 54.1246 105.667 54.5003C105.667 54.8761 105.816 55.2364 106.081 55.5021C106.347 55.7677 106.707 55.917 107.083 55.917H108.419C108.25 57.9333 107.723 59.9033 106.861 61.7338L105.702 61.0652C105.377 60.8778 104.99 60.8271 104.628 60.9243C104.265 61.0215 103.956 61.2587 103.768 61.5837Z" fill="#045105"/>
</svg>
