<svg width="30" height="30" viewBox="0 0 30 30" fill="none" xmlns="http://www.w3.org/2000/svg">
<circle cx="15" cy="15" r="15" fill="white"/>
<path d="M15 5.4541C9.72612 5.4541 5.45453 9.83384 5.45453 15.2412C5.45345 17.2958 6.0834 19.2986 7.25501 20.9654C8.42662 22.6322 10.0804 23.8785 11.9817 24.5273C12.459 24.6124 12.6375 24.3188 12.6375 24.0614C12.6375 23.8294 12.6251 23.0592 12.6251 22.239C10.2273 22.6922 9.6068 21.6401 9.41589 21.0891C9.30803 20.8072 8.84317 19.9391 8.43748 19.7061C8.10339 19.5231 7.62612 19.07 8.42508 19.0582C9.17726 19.0455 9.71371 19.7678 9.89317 20.0614C10.7523 21.5412 12.1249 21.1253 12.6728 20.8688C12.7568 20.2327 13.0069 19.805 13.2818 19.5603C11.1579 19.3156 8.93862 18.471 8.93862 14.7274C8.93862 13.6626 9.30803 12.7827 9.91703 12.0966C9.82158 11.852 9.48748 10.8488 10.0125 9.50304C10.0125 9.50304 10.8114 9.24662 12.6375 10.5072C13.4145 10.2861 14.2174 10.1748 15.0238 10.1764C15.8352 10.1764 16.6466 10.286 17.4102 10.5062C19.2353 9.23389 20.0352 9.50402 20.0352 9.50402C20.5602 10.8497 20.2261 11.8529 20.1307 12.0976C20.7387 12.7827 21.1091 13.6508 21.1091 14.7274C21.1091 18.4837 18.8783 19.3156 16.7544 19.5603C17.1 19.8657 17.3988 20.4529 17.3988 21.3709C17.3988 22.6795 17.3863 23.7316 17.3863 24.0624C17.3863 24.3188 17.5658 24.6242 18.0431 24.5263C19.9379 23.8704 21.5844 22.6217 22.7508 20.9561C23.9172 19.2905 24.5449 17.2918 24.5454 15.2412C24.5454 9.83384 20.2738 5.4541 15 5.4541Z" fill="#2B582B"/>
</svg>
