<svg width="149" height="149" viewBox="0 0 149 149" fill="none" xmlns="http://www.w3.org/2000/svg">
<circle cx="74.5" cy="74.5" r="73.5" stroke="#076775" stroke-width="2"/>
<path d="M66.7386 32C64.426 32 62.3383 32.5429 60.7319 33.6903C59.1255 34.8378 58.0455 36.71 58.0455 38.7614V40.6932C55.7213 40.6932 53.646 41.2355 52.0387 42.3835C50.4314 43.5316 49.3523 45.4041 49.3523 47.4545V59.0455H38.7273C36.8933 59.0455 34.9794 59.5808 33.4751 60.8867C31.9709 62.1927 31 64.2938 31 66.7727V89.9545C31 94.9123 34.6264 98.6477 38.7273 98.6477H49.3523V109.273C49.3523 111.109 49.9151 112.992 51.2237 114.495C52.5323 115.998 54.6007 117 57.0795 117H80.2614C85.2191 117 88.9545 113.374 88.9545 109.273V98.6477H100.545C102.596 98.6477 104.468 97.5685 105.616 95.9613C106.765 94.354 107.307 92.2788 107.307 89.9545H109.239C111.29 89.9545 113.132 88.8443 114.279 87.2379C115.427 85.6315 116 83.5739 116 81.2614V68.7045C116.024 67.6087 114.946 66.6225 113.857 66.7425C112.908 66.8469 112.116 67.7498 112.136 68.7045V81.2614C112.136 82.9327 111.696 84.2259 111.14 85.0043C110.584 85.7826 110.033 86.0909 109.239 86.0909H107.307V66.7727C107.307 64.4485 106.722 62.469 105.466 61.0678C104.209 59.6667 102.379 59.0455 100.545 59.0455H88.9545V47.4545C88.9545 45.6206 88.3333 43.7605 86.9322 42.5043C85.531 41.248 83.5515 40.6932 81.2273 40.6932H61.9091V38.7614C61.9091 37.967 62.2174 37.3855 62.9957 36.8295C63.7741 36.2736 65.0674 35.8636 66.7386 35.8636H89.9204C92.9338 35.8636 94.6868 38.0706 94.75 39.7273C94.7503 39.736 94.7497 39.7485 94.75 39.7575V51.3182C94.7501 52.3297 95.6703 53.2499 96.6818 53.25H108.273C109.861 53.25 112.136 55.0494 112.136 58.0795V60.9773C112.122 61.9979 113.047 62.9366 114.068 62.9366C115.089 62.9366 116.014 61.9979 116 60.9773V58.0795C116 53.1421 112.375 49.3864 108.273 49.3864H98.6136V39.7273C98.6139 39.7072 98.6139 39.687 98.6136 39.6669C98.5047 35.637 94.8582 32 89.9204 32H66.7386ZM58.0455 44.5568H81.2273C82.9249 44.5568 83.8452 44.9616 84.3363 45.402C84.8274 45.8423 85.0909 46.4157 85.0909 47.4545V60.9773C85.091 61.9887 86.0113 62.909 87.0227 62.9091H100.545C101.584 62.9091 102.158 63.1424 102.598 63.6335C103.038 64.1247 103.443 65.0751 103.443 66.7727V89.9545C103.443 91.6521 103.026 92.9294 102.477 93.6974C101.929 94.4654 101.368 94.7841 100.545 94.7841H87.0227C86.0113 94.7842 85.091 95.7044 85.0909 96.7159V109.273C85.0909 110.917 83.3473 113.136 80.2614 113.136H57.0795C55.5366 113.136 54.7102 112.635 54.1214 111.959C53.5327 111.283 53.2159 110.309 53.2159 109.273V96.7159C53.2158 95.7044 52.2956 94.7842 51.2841 94.7841H38.7273C37.0827 94.7841 34.8636 93.0405 34.8636 89.9545V66.7727C34.8636 65.2298 35.3353 64.4009 36.0107 63.8146C36.686 63.2283 37.6885 62.9091 38.7273 62.9091H51.2841C52.2956 62.909 53.2158 61.9887 53.2159 60.9773V47.4545C53.2159 46.6322 53.5044 46.0713 54.2724 45.5227C55.0403 44.9742 56.3478 44.5568 58.0455 44.5568ZM76.609 66.7727C74.2731 66.7192 71.6903 67.7674 69.244 70.2138L68.6705 70.7873L68.0969 70.2138C66.0001 68.1169 63.7879 67.0637 61.728 66.8331C61.0413 66.7562 60.3797 66.7599 59.7358 66.8633C57.3684 67.3808 55.1353 68.7431 53.7894 70.2138C50.4443 73.5807 50.4741 79.1012 53.729 82.5593C53.739 82.5695 53.7491 82.5795 53.7592 82.5895C58.1635 87.1827 62.7378 92.4211 67.282 97.0781C68.0001 97.8204 69.3408 97.8204 70.0589 97.0781C74.6031 92.4211 79.1774 87.1827 83.5817 82.5895C83.5918 82.5795 83.6019 82.5695 83.6119 82.5593C86.8668 79.1012 86.9268 73.5807 83.5817 70.2138C82.1303 68.5257 79.6344 67.2257 77.6051 66.8633C77.2832 66.8116 76.9427 66.7804 76.609 66.7727ZM60.8526 70.6364C62.0561 70.5821 63.45 71.0303 65.3803 72.9606L67.3121 74.8924C68.0263 75.5984 69.3146 75.5984 70.0288 74.8924L71.9606 72.9606H71.9908C74.1843 70.7755 75.688 70.4557 77.0014 70.6665C78.5582 71.1403 80.149 72.1627 80.8651 72.9908C82.6445 74.8168 82.6277 77.9454 80.8047 79.9031C80.7997 79.9127 80.8097 79.9284 80.8047 79.9332C76.7763 84.1354 72.6734 88.7197 68.6705 92.9126C64.6722 88.7246 60.5903 84.1316 56.5664 79.9332C56.5566 79.9226 56.5459 79.9137 56.5362 79.9031C54.7243 77.9448 54.7002 74.8131 56.4758 72.9908C57.2025 72.05 58.9679 70.9112 60.3395 70.6665C60.5042 70.6401 60.6807 70.6441 60.8526 70.6364Z" fill="#076775"/>
</svg>
