<svg width="30" height="30" viewBox="0 0 30 30" fill="none" xmlns="http://www.w3.org/2000/svg">
<circle cx="15" cy="15" r="15" fill="white"/>
<g clip-path="url(#clip0_787:876)">
<path d="M20.0392 20.0423H17.9193V16.7197C17.9193 15.9274 17.9034 14.9076 16.8136 14.9076C15.7087 14.9076 15.5401 15.7699 15.5401 16.6616V20.0423H13.4194V13.2101H15.4558V14.1408H15.4836C15.7684 13.6047 16.4604 13.0375 17.4945 13.0375C19.6422 13.0375 20.04 14.4518 20.04 16.2917V20.0423H20.0392ZM11.0251 12.2755C10.8633 12.2757 10.703 12.244 10.5534 12.1821C10.4039 12.1202 10.268 12.0295 10.1536 11.915C10.0392 11.8005 9.94856 11.6646 9.8868 11.515C9.82504 11.3655 9.79341 11.2052 9.79372 11.0433C9.79388 10.7998 9.86625 10.5618 10.0017 10.3593C10.1371 10.1569 10.3295 9.99923 10.5546 9.90618C10.7797 9.81313 11.0273 9.7889 11.2661 9.83657C11.5049 9.88423 11.7243 10.0017 11.8964 10.174C12.0685 10.3463 12.1856 10.5658 12.2329 10.8047C12.2803 11.0436 12.2558 11.2911 12.1624 11.5161C12.0691 11.741 11.9111 11.9332 11.7085 12.0684C11.5059 12.2036 11.2678 12.2756 11.0243 12.2755H11.0251ZM12.0878 20.0423H9.96156V13.2101H12.0886V20.0423H12.0878ZM21.1011 7.84082H8.89804C8.31259 7.84082 7.84088 8.30218 7.84088 8.87252V21.1273C7.84088 21.6976 8.31338 22.159 8.89725 22.159H21.0979C21.6818 22.159 22.1591 21.6976 22.1591 21.1273V8.87252C22.1591 8.30218 21.6818 7.84082 21.0979 7.84082H21.1003H21.1011Z" fill="#2B582B"/>
</g>
<defs>
<clipPath id="clip0_787:876">
<rect width="19.0909" height="19.0909" fill="white" transform="translate(5.45453 5.4541)"/>
</clipPath>
</defs>
</svg>
