<svg width="26" height="26" viewBox="0 0 26 26" fill="none" xmlns="http://www.w3.org/2000/svg">
<path d="M8.15733 3.38543L4.50933 2.1681C4.10845 2.03458 3.68157 1.99823 3.26388 2.06205C2.84619 2.12587 2.44964 2.28804 2.10692 2.53519C1.7642 2.78233 1.48511 3.10738 1.29266 3.48355C1.10021 3.85971 0.999898 4.27623 1 4.69877V20.4094C0.999865 20.9693 1.17597 21.5151 1.50335 21.9693C1.83074 22.4235 2.29278 22.7632 2.824 22.9401L8.15733 24.7174C8.70434 24.8996 9.29566 24.8996 9.84267 24.7174L16.1573 22.6134C16.7043 22.4312 17.2957 22.4312 17.8427 22.6134L21.4907 23.8294C21.8917 23.963 22.3187 23.9993 22.7365 23.9354C23.1542 23.8715 23.5509 23.7093 23.8936 23.462C24.2364 23.2147 24.5154 22.8894 24.7078 22.5131C24.9002 22.1368 25.0003 21.7201 25 21.2974V5.5881C25.0002 5.02836 24.8243 4.48274 24.4972 4.02854C24.1701 3.57434 23.7083 3.23459 23.1773 3.05743L17.844 1.2801C17.2966 1.09761 16.7047 1.09761 16.1573 1.2801L9.84133 3.3841C9.29433 3.56629 8.70301 3.56629 8.156 3.3841L8.15733 3.38543Z" stroke="black" stroke-width="2" stroke-linecap="round" stroke-linejoin="round"/>
<path d="M9 3.66667V25" stroke="black" stroke-width="2" stroke-linejoin="round"/>
<path d="M17 1V22.3333" stroke="black" stroke-width="2" stroke-linejoin="round"/>
</svg>
