<svg width="22" height="27" viewBox="0 0 22 27" fill="none" xmlns="http://www.w3.org/2000/svg">
<path d="M21.725 7.875H17.05C16.3207 7.875 15.6212 7.57868 15.1055 7.05124C14.5897 6.52379 14.3 5.80842 14.3 5.0625V0.279C14.2994 0.204798 14.2702 0.133838 14.2187 0.0815791C14.1672 0.0293202 14.0976 -2.37442e-06 14.025 1.44209e-10L2.2 1.44209e-10C1.61652 1.4421e-10 1.05694 0.237053 0.644365 0.65901C0.231785 1.08097 0 1.65326 0 2.25V24.75C0 25.3467 0.231785 25.919 0.644365 26.341C1.05694 26.7629 1.61652 27 2.2 27H19.8C20.3835 27 20.9431 26.7629 21.3556 26.341C21.7682 25.919 22 25.3467 22 24.75V8.154C21.9994 8.0798 21.9702 8.00884 21.9187 7.95658C21.8672 7.90432 21.7976 7.875 21.725 7.875ZM6.05 18.7009H5.3647C5.29118 18.7009 5.22068 18.7307 5.16869 18.7839C5.1167 18.8371 5.0875 18.9092 5.0875 18.9844V21.375C5.0875 21.5615 5.01507 21.7403 4.88614 21.8722C4.7572 22.004 4.58234 22.0781 4.4 22.0781C4.21766 22.0781 4.0428 22.004 3.91386 21.8722C3.78493 21.7403 3.7125 21.5615 3.7125 21.375V14.625C3.71221 14.5325 3.72978 14.4408 3.7642 14.3552C3.79862 14.2697 3.84922 14.1919 3.91308 14.1264C3.97695 14.0608 4.05284 14.0088 4.1364 13.9734C4.21995 13.9379 4.30953 13.9196 4.4 13.9196H6.05C6.66994 13.9196 7.2645 14.1715 7.70286 14.6198C8.14123 15.0682 8.3875 15.6762 8.3875 16.3102C8.3875 16.9443 8.14123 17.5523 7.70286 18.0007C7.2645 18.449 6.66994 18.7009 6.05 18.7009ZM9.9 22.0759C9.71804 22.0759 9.54351 22.0021 9.41464 21.8707C9.28577 21.7394 9.21308 21.5611 9.2125 21.375V14.625C9.21221 14.5325 9.22978 14.4408 9.2642 14.3552C9.29862 14.2697 9.34922 14.1919 9.41308 14.1264C9.47695 14.0608 9.55284 14.0088 9.6364 13.9734C9.71995 13.9379 9.80953 13.9196 9.9 13.9196C10.9576 13.9196 11.9718 14.3493 12.7196 15.1141C13.4674 15.8789 13.8875 16.9162 13.8875 17.9977C13.8875 19.0793 13.4674 20.1166 12.7196 20.8814C11.9718 21.6462 10.9576 22.0759 9.9 22.0759ZM18.7 15.3259H16.5C16.3906 15.3259 16.2857 15.3703 16.2083 15.4494C16.131 15.5286 16.0875 15.6359 16.0875 15.7478V17.0111C16.0875 17.0863 16.1167 17.1584 16.1687 17.2116C16.2207 17.2648 16.2912 17.2946 16.3647 17.2946H17.6C17.7823 17.2946 17.9572 17.3687 18.0861 17.5006C18.2151 17.6324 18.2875 17.8113 18.2875 17.9977C18.2875 18.1842 18.2151 18.3631 18.0861 18.4949C17.9572 18.6268 17.7823 18.7009 17.6 18.7009H16.3647C16.2912 18.7009 16.2207 18.7307 16.1687 18.7839C16.1167 18.8371 16.0875 18.9092 16.0875 18.9844V21.375C16.0875 21.5615 16.0151 21.7403 15.8861 21.8722C15.7572 22.004 15.5823 22.0781 15.4 22.0781C15.2177 22.0781 15.0428 22.004 14.9139 21.8722C14.7849 21.7403 14.7125 21.5615 14.7125 21.375V15.75C14.7125 15.2649 14.9008 14.7997 15.2359 14.4565C15.5711 14.1133 16.0257 13.9202 16.5 13.9196H18.7C18.8823 13.9196 19.0572 13.9937 19.1861 14.1256C19.3151 14.2574 19.3875 14.4363 19.3875 14.6228C19.3875 14.8092 19.3151 14.9881 19.1861 15.1199C19.0572 15.2518 18.8823 15.3259 18.7 15.3259Z" fill="#D26F6E"/>
</svg>
