<svg width="16" height="16" viewBox="0 0 16 16" fill="none" xmlns="http://www.w3.org/2000/svg">
<path d="M15 1L15.4596 1.19696C15.5401 1.00904 15.4981 0.791016 15.3536 0.646447C15.209 0.501877 14.991 0.45989 14.803 0.540427L15 1ZM1 7L0.80304 6.54043C0.630457 6.61439 0.513861 6.77881 0.501148 6.96614C0.488434 7.15348 0.581745 7.33214 0.742752 7.42875L1 7ZM9 15L8.57125 15.2572C8.66786 15.4183 8.84652 15.5116 9.03386 15.4989C9.22119 15.4861 9.38561 15.3695 9.45957 15.197L9 15ZM14.803 0.540427L0.80304 6.54043L1.19696 7.45957L15.197 1.45957L14.803 0.540427ZM0.742752 7.42875L5.74275 10.4287L6.25725 9.57125L1.25725 6.57125L0.742752 7.42875ZM5.57125 10.2572L8.57125 15.2572L9.42875 14.7428L6.42875 9.74275L5.57125 10.2572ZM9.45957 15.197L15.4596 1.19696L14.5404 0.80304L8.54043 14.803L9.45957 15.197ZM14.6464 0.646447L5.64645 9.64645L6.35355 10.3536L15.3536 1.35355L14.6464 0.646447Z" fill="#0A0A0A"/>
</svg>
