<svg width="23" height="27" viewBox="0 0 23 27" fill="none" xmlns="http://www.w3.org/2000/svg">
<path d="M20.125 27H2.875C2.1125 27 1.38123 26.7155 0.842068 26.2092C0.302901 25.7029 0 25.0162 0 24.3001V2.70107C0 1.98502 0.302901 1.29829 0.842068 0.791965C1.38123 0.285639 2.1125 0.00118785 2.875 0.00118785H12.9375C12.9504 -0.000395949 12.9634 -0.000395949 12.9763 0.00118785H12.9849C12.9985 0.00517243 13.0125 0.00788559 13.0266 0.00928755C13.1531 0.0173872 13.2782 0.040336 13.3989 0.0781344H13.4593C13.4858 0.0955742 13.5108 0.114986 13.5341 0.136182C13.6907 0.201577 13.8334 0.293047 13.9552 0.40617L22.5802 8.50581C22.7007 8.62027 22.7981 8.75428 22.8678 8.90135C22.8803 8.93054 22.8913 8.96027 22.9008 8.99044L22.9152 9.02824C22.9554 9.14029 22.9784 9.25773 22.9856 9.37652C22.9869 9.38997 22.9903 9.40317 22.9957 9.41567V9.42377C22.998 9.43263 22.9994 9.44167 23 9.45077V24.3001C23 25.0162 22.6971 25.7029 22.1579 26.2092C21.6188 26.7155 20.8875 27 20.125 27ZM16.5312 16.2005C15.8786 16.1681 15.2519 16.4435 14.8623 16.9362C14.442 17.5584 14.2408 18.289 14.2873 19.0246V20.2071C14.2466 20.9343 14.4651 21.6534 14.9083 22.2509C15.3252 22.7234 15.9548 22.9812 16.606 22.9502C17.0085 22.9542 17.4067 22.8827 17.779 22.7423L17.7977 22.7355L17.7747 22.745C18.1269 22.6086 18.4359 22.394 18.6803 22.1186V19.4039H16.5111V20.4055H17.4067V21.611L17.2946 21.692C17.1126 21.8037 16.8979 21.8589 16.6807 21.85C16.5131 21.8618 16.3451 21.8304 16.1951 21.759C16.0451 21.6876 15.9187 21.579 15.8298 21.445C15.6302 21.0357 15.5423 20.5861 15.5739 20.1369V18.9449C15.5474 18.5164 15.6292 18.0881 15.8125 17.6949C15.8848 17.5687 15.994 17.4646 16.1272 17.3948C16.2604 17.325 16.412 17.2923 16.5643 17.3007C16.6804 17.2918 16.7971 17.308 16.9055 17.348C17.0139 17.388 17.1111 17.4508 17.1896 17.5315C17.3578 17.788 17.4441 18.085 17.4412 18.3847H18.6875C18.691 17.7837 18.4766 17.1996 18.0794 16.7283C17.8756 16.5428 17.6323 16.3998 17.3655 16.3088C17.0987 16.2179 16.8144 16.1809 16.5312 16.2005ZM4.3125 20.7903C4.30387 21.1899 4.40306 21.5867 4.6 21.9404C4.78112 22.2563 5.05569 22.5155 5.39062 22.6896C5.73131 22.8638 6.11369 22.9529 6.50181 22.9502C7.02794 22.9772 7.54256 22.8017 7.93069 22.4682C8.1114 22.2905 8.25134 22.0798 8.34184 21.8493C8.43234 21.6187 8.47147 21.3731 8.45681 21.1278C8.4755 20.6688 8.32744 20.2152 8.03563 19.8453C7.67524 19.4555 7.2123 19.1614 6.693 18.9922C6.41942 18.8863 6.16932 18.7334 5.95556 18.5413C5.82257 18.4066 5.74908 18.2295 5.75 18.0458C5.73911 17.847 5.80552 17.6513 5.93688 17.4951C6.00134 17.4255 6.08183 17.3706 6.17224 17.3346C6.26265 17.2986 6.36061 17.2824 6.45869 17.2872C6.67144 17.2764 6.87556 17.3682 7.00062 17.5315C7.13982 17.7383 7.20527 17.9813 7.1875 18.2254H8.46112C8.46727 17.8602 8.38261 17.4988 8.21387 17.1697C8.06085 16.8712 7.8173 16.6218 7.51381 16.4529C7.19903 16.281 6.83999 16.1937 6.47594 16.2005C5.9448 16.1852 5.42853 16.3665 5.03844 16.7054C4.84986 16.8774 4.70207 17.0849 4.60472 17.3143C4.50737 17.5436 4.46266 17.7897 4.4735 18.0364C4.46461 18.4664 4.61217 18.8864 4.89181 19.227C5.26269 19.6226 5.73275 19.9236 6.25887 20.1032C6.52625 20.2004 6.77063 20.3461 6.97762 20.5311C7.12281 20.7025 7.19325 20.9185 7.17744 21.1359C7.17744 21.6232 6.95175 21.8702 6.509 21.8702C6.37977 21.8813 6.24959 21.8638 6.1288 21.8193C6.00802 21.7748 5.89997 21.7044 5.81325 21.6137C5.65059 21.3666 5.57607 21.0772 5.6005 20.7876L4.3125 20.7903ZM8.88663 16.2923L10.6979 22.8611H12.0276L13.8517 16.2923H12.4272L11.3562 21.0603L10.2968 16.2963L8.88663 16.2923ZM12.9375 2.70107V9.45077H20.125L12.9375 2.70107Z" fill="#4965B2"/>
</svg>
