<svg xmlns="http://www.w3.org/2000/svg" width="30" height="30" fill="none" viewBox="0 0 30 30">
  <circle cx="15" cy="15" r="15" fill="#fff"/>
  <g clip-path="url(#a)">
    <path fill="#2B582B" d="M23.08 9.95c-.6.27-1.25.45-1.9.53a3.34 3.34 0 0 0 1.46-1.84c-.66.38-1.37.66-2.12.8a3.33 3.33 0 0 0-5.66 3.04A9.44 9.44 0 0 1 8 9a3.32 3.32 0 0 0 1.03 4.44 3.32 3.32 0 0 1-1.5-.41v.04a3.33 3.33 0 0 0 2.66 3.26c-.49.13-1 .15-1.5.06a3.33 3.33 0 0 0 3.1 2.3 6.68 6.68 0 0 1-4.92 1.39c1.52.97 3.3 1.5 5.1 1.5 6.12 0 9.46-5.08 9.46-9.47v-.43a6.76 6.76 0 0 0 1.65-1.73Z"/>
  </g>
  <defs>
    <clipPath id="a">
      <path fill="#fff" d="M0 0h19.09v19.09H0z" transform="translate(5.45 5.45)"/>
    </clipPath>
  </defs>
</svg>
