<svg width="149" height="149" viewBox="0 0 149 149" fill="none" xmlns="http://www.w3.org/2000/svg">
<circle cx="74.5" cy="74.5" r="73.5" stroke="#076775" stroke-width="2"/>
<path fill-rule="evenodd" clip-rule="evenodd" d="M116.989 32V46.1649H72.1338V36.7216C72.1338 35.4694 72.6312 34.2684 73.5167 33.3829C74.4022 32.4975 75.6032 32 76.8554 32H116.989ZM76.8554 36.7216H112.268V41.4433H76.8554V36.7216Z" fill="#076775"/>
<path fill-rule="evenodd" clip-rule="evenodd" d="M48.5257 111.678V112.258C48.5257 113.511 48.0282 114.712 47.1428 115.597C46.2573 116.483 45.0563 116.98 43.8041 116.98H36.7216C35.4694 116.98 34.2684 116.483 33.3829 115.597C32.4975 114.712 32 113.511 32 112.258V86.3012C32 85.049 32.4975 83.848 33.3829 82.9625C34.2684 82.0771 35.4694 81.5796 36.7216 81.5796H43.8041C44.8674 81.5792 45.8998 81.9377 46.734 82.5971C47.5683 83.2565 48.1555 84.1782 48.4006 85.2129C51.5263 84.0868 55.1785 82.7458 56.2951 82.2359C57.2442 81.8039 58.3396 81.6575 59.2509 81.6032C60.1913 81.5576 61.1338 81.5742 62.0721 81.6528C63.1227 81.7365 64.1688 81.8689 65.2072 82.0494L65.2615 82.0589L65.278 82.0612H65.2851L65.3276 82.0707L81.1215 85.6119L81.2183 85.6449L81.2442 85.6544L81.3528 85.6874C82.0342 85.8872 82.7224 86.0628 83.4162 86.2139C84.7736 86.509 86.4852 86.7852 88.0788 86.7852C89.5519 86.7852 91.077 87.3353 91.8891 88.8273C92.5879 90.1069 92.425 91.5139 92.1654 92.4866C91.8372 93.7 91.162 94.9749 90.305 96.0585C91.4618 95.6217 92.7296 95.1047 94.0894 94.5476L94.3798 94.4295C98.2114 92.8549 102.754 90.9898 106.762 90.3288C111.342 89.571 114.673 91.233 116.184 94.1816C117.53 96.8069 117.218 100.251 115.193 102.326C114.685 102.848 113.911 103.396 113.134 103.899C112.303 104.439 111.281 105.046 110.145 105.693C107.537 107.154 104.896 108.556 102.225 109.9C96.6249 112.74 90.7559 115.502 88.8909 116.184C86.7284 116.975 84.4054 117.051 82.1744 116.935C80.8271 116.852 79.4819 116.737 78.1398 116.593C77.1246 116.491 76.1165 116.392 75.1887 116.321C70.6371 115.977 67.1431 114.865 63.9277 113.842L63.5358 113.717C60.2117 112.664 57.1191 111.727 53.0231 111.562C52.0882 111.524 50.2184 111.595 48.5257 111.675V111.678ZM58.2523 86.5326C58.4057 86.4618 58.807 86.3603 59.5224 86.3178C60.1928 86.2776 60.9577 86.3036 61.7061 86.3603C62.5506 86.4273 63.3918 86.5305 64.2275 86.6695L64.3125 86.686L64.3786 86.6979H64.3857L79.8891 90.1753L79.9954 90.2084C80.7928 90.4431 81.5984 90.6494 82.4105 90.8269C83.7915 91.1291 85.6448 91.4454 87.5311 91.4997C87.3627 91.9541 87.1365 92.385 86.8582 92.7817C86.4805 93.3294 86.0674 93.752 85.7274 93.9951C84.7453 94.6986 83.9521 94.9914 83.4705 95.1165C83.3065 95.1614 83.1391 95.193 82.97 95.211H82.918L70.2594 95.0599L69.8108 99.7437L70.231 97.4207L69.8108 99.7437L69.9359 99.7673L70.2971 99.8311L71.6097 100.062C72.7122 100.256 74.2255 100.516 75.8734 100.785C79.1171 101.314 83.0266 101.899 85.2458 102.034C86.7803 102.128 88.5651 101.656 90.2248 101.101C91.9552 100.523 93.9123 99.7225 95.8813 98.9151C99.9348 97.2531 104.064 95.5604 107.532 94.9867C110.53 94.4909 111.6 95.5863 111.982 96.3347C112.532 97.4089 112.235 98.6011 111.812 99.0308C111.711 99.137 111.34 99.4368 110.566 99.9397C109.843 100.405 108.911 100.964 107.815 101.585C105.271 103.01 102.695 104.378 100.091 105.688C94.4435 108.552 88.8248 111.179 87.2667 111.751C86.006 112.214 84.4455 112.324 82.4176 112.221C81.2183 112.159 80.0803 112.044 78.8409 111.916C77.7437 111.801 76.6451 111.7 75.5452 111.614C71.5507 111.312 68.5147 110.346 65.2592 109.312L64.9641 109.218C61.5928 108.148 57.9855 107.036 53.2143 106.845C52.1401 106.803 50.2278 106.869 48.5257 106.949V90.1848C51.8426 88.9973 56.7579 87.2149 58.2523 86.5326ZM64.8531 84.3843L65.2851 82.0636L64.8531 84.3843ZM43.8041 86.2989H36.7216V112.256H43.8041V86.3012V86.2989Z" fill="#076775"/>
<path d="M74.4946 50.8867C73.8685 50.8867 73.268 51.1354 72.8253 51.5782C72.3825 52.0209 72.1338 52.6214 72.1338 53.2475C72.1338 53.8737 72.3825 54.4741 72.8253 54.9169C73.268 55.3596 73.8685 55.6083 74.4946 55.6083H88.6595C89.2856 55.6083 89.8861 55.3596 90.3288 54.9169C90.7716 54.4741 91.0203 53.8737 91.0203 53.2475C91.0203 52.6214 90.7716 52.0209 90.3288 51.5782C89.8861 51.1354 89.2856 50.8867 88.6595 50.8867H74.4946Z" fill="#076775"/>
<path d="M81.5771 60.7354C82.2032 60.7354 82.8037 60.9841 83.2465 61.4268C83.6892 61.8696 83.9379 62.47 83.9379 63.0962V67.8178C83.9379 68.4439 83.6892 69.0444 83.2465 69.4871C82.8037 69.9299 82.2032 70.1786 81.5771 70.1786C80.951 70.1786 80.3505 69.9299 79.9078 69.4871C79.465 69.0444 79.2163 68.4439 79.2163 67.8178V63.0962C79.2163 62.47 79.465 61.8696 79.9078 61.4268C80.3505 60.9841 80.951 60.7354 81.5771 60.7354Z" fill="#076775"/>
<path d="M91.3071 61.0211C90.8618 60.5911 90.2654 60.3531 89.6465 60.3585C89.0275 60.3639 88.4353 60.6122 87.9976 61.0499C87.5599 61.4876 87.3116 62.0797 87.3062 62.6987C87.3009 63.3177 87.5388 63.914 87.9689 64.3593L91.3071 67.6975C91.5262 67.9168 91.7865 68.0909 92.0729 68.2096C92.3594 68.3284 92.6664 68.3896 92.9765 68.3897C93.2866 68.3898 93.5937 68.3288 93.8802 68.2103C94.1667 68.0917 94.4271 67.9179 94.6464 67.6987C94.8658 67.4795 95.0398 67.2192 95.1586 66.9328C95.2773 66.6463 95.3385 66.3393 95.3386 66.0292C95.3387 65.7191 95.2778 65.4121 95.1592 65.1255C95.0406 64.839 94.8668 64.5786 94.6476 64.3593L91.3071 61.0211Z" fill="#076775"/>
<path d="M68.1033 68.1041C67.6607 67.6614 67.4121 67.061 67.4121 66.435C67.4121 65.809 67.6607 65.2087 68.1033 64.7659L71.4415 61.4254C71.8845 60.9827 72.4852 60.7342 73.1114 60.7344C73.7377 60.7346 74.3382 60.9836 74.7809 61.4266C75.2236 61.8696 75.4721 62.4703 75.4719 63.0965C75.4717 63.7228 75.2227 64.3233 74.7797 64.7659L71.4415 68.1041C70.9988 68.5467 70.3984 68.7954 69.7724 68.7954C69.1464 68.7954 68.546 68.5467 68.1033 68.1041Z" fill="#076775"/>
<path d="M83.9379 74.9009C83.9379 74.2747 83.6892 73.6742 83.2465 73.2315C82.8037 72.7888 82.2032 72.54 81.5771 72.54C80.951 72.54 80.3505 72.7888 79.9078 73.2315C79.465 73.6742 79.2163 74.2747 79.2163 74.9009V77.2617C79.2163 77.8878 79.465 78.4883 79.9078 78.931C80.3505 79.3738 80.951 79.6225 81.5771 79.6225C82.2032 79.6225 82.8037 79.3738 83.2465 78.931C83.6892 78.4883 83.9379 77.8878 83.9379 77.2617V74.9009Z" fill="#076775"/>
<path d="M96.2303 69.284C96.673 68.8414 97.2734 68.5928 97.8994 68.5928C98.5254 68.5928 99.1257 68.8414 99.5685 69.284L102.907 72.6222C103.337 73.0674 103.575 73.6638 103.569 74.2828C103.564 74.9018 103.316 75.4939 102.878 75.9316C102.44 76.3693 101.848 76.6176 101.229 76.623C100.61 76.6284 100.014 76.3904 99.5685 75.9604L96.2303 72.6222C95.7877 72.1795 95.5391 71.5791 95.5391 70.9531C95.5391 70.3271 95.7877 69.7267 96.2303 69.284Z" fill="#076775"/>
<path d="M59.8419 72.4388C59.4119 72.8841 59.1739 73.4804 59.1793 74.0994C59.1847 74.7184 59.433 75.3105 59.8707 75.7482C60.3084 76.1859 60.9005 76.4342 61.5195 76.4396C62.1385 76.445 62.7348 76.207 63.1801 75.777L66.5183 72.4388C66.7376 72.2196 66.9117 71.9594 67.0304 71.6729C67.1492 71.3865 67.2104 71.0794 67.2105 70.7694C67.2106 70.4593 67.1496 70.1522 67.0311 69.8657C66.9125 69.5791 66.7387 69.3188 66.5195 69.0994C66.3003 68.8801 66.04 68.7061 65.7536 68.5873C65.4672 68.4685 65.1601 68.4073 64.85 68.4072C64.5399 68.4071 64.2329 68.4681 63.9463 68.5866C63.6598 68.7052 63.3994 68.8791 63.1801 69.0982L59.8419 72.4388Z" fill="#076775"/>
</svg>
