<svg width="22" height="27" viewBox="0 0 22 27" fill="none" xmlns="http://www.w3.org/2000/svg">
<path d="M21.725 7.875H17.05C16.3207 7.875 15.6212 7.57868 15.1055 7.05124C14.5897 6.52379 14.3 5.80842 14.3 5.0625V0.279C14.2994 0.204798 14.2702 0.133838 14.2187 0.0815791C14.1672 0.0293202 14.0976 -2.37442e-06 14.025 1.44209e-10L2.2 1.44209e-10C1.61652 1.4421e-10 1.05694 0.237053 0.644365 0.65901C0.231785 1.08097 0 1.65326 0 2.25V24.75C0 25.3467 0.231785 25.919 0.644365 26.341C1.05694 26.7629 1.61652 27 2.2 27H19.8C20.3835 27 20.9431 26.7629 21.3556 26.341C21.7682 25.919 22 25.3467 22 24.75V8.154C21.9994 8.0798 21.9702 8.00884 21.9187 7.95658C21.8672 7.90432 21.7976 7.875 21.725 7.875ZM7.7627 20.4649C7.80727 20.5478 7.83502 20.6391 7.84428 20.7332C7.85354 20.8274 7.84413 20.9224 7.8166 21.0128C7.78908 21.1031 7.74401 21.1868 7.68409 21.2589C7.62418 21.331 7.55065 21.39 7.46791 21.4324C7.38517 21.4747 7.29493 21.4996 7.20259 21.5054C7.11025 21.5112 7.0177 21.4979 6.9305 21.4663C6.8433 21.4347 6.76324 21.3854 6.69511 21.3214C6.62698 21.2574 6.57218 21.1799 6.534 21.0938C6.534 21.0938 5.5858 19.1711 5.5649 19.1115C5.55925 19.0983 5.54995 19.087 5.53813 19.0791C5.52631 19.0711 5.51248 19.0669 5.49835 19.0669C5.48422 19.0669 5.4704 19.0711 5.45857 19.0791C5.44675 19.087 5.43745 19.0983 5.4318 19.1115L4.4627 21.0915C4.40687 21.2094 4.3199 21.309 4.21162 21.379C4.10335 21.4489 3.97808 21.4865 3.85 21.4875C3.74332 21.4874 3.63817 21.4616 3.5431 21.4121C3.46227 21.371 3.39018 21.314 3.33093 21.2443C3.27169 21.1746 3.22647 21.0937 3.19786 21.0061C3.16925 20.9185 3.15781 20.826 3.1642 20.7339C3.17059 20.6418 3.19469 20.5519 3.2351 20.4694L4.6651 17.5354C4.6841 17.4962 4.69398 17.4531 4.69398 17.4094C4.69398 17.3657 4.6841 17.3225 4.6651 17.2834L3.234 14.3438C3.16065 14.1782 3.15286 13.99 3.21225 13.8186C3.27164 13.6473 3.39361 13.5062 3.55255 13.4248C3.7115 13.3435 3.89508 13.3282 4.06477 13.3823C4.23446 13.4364 4.37708 13.5556 4.4627 13.7149L5.4263 15.6848C5.43207 15.6996 5.44207 15.7124 5.45502 15.7214C5.46796 15.7304 5.48325 15.7352 5.4989 15.7352C5.51455 15.7352 5.52984 15.7304 5.54278 15.7214C5.55573 15.7124 5.56573 15.6996 5.5715 15.6848L6.534 13.7149C6.57218 13.6287 6.62698 13.5513 6.69511 13.4872C6.76324 13.4232 6.8433 13.3739 6.9305 13.3423C7.0177 13.3107 7.11025 13.2974 7.20259 13.3032C7.29493 13.3091 7.38517 13.3339 7.46791 13.3763C7.55065 13.4186 7.62418 13.4776 7.68409 13.5497C7.74401 13.6218 7.78908 13.7055 7.8166 13.7958C7.84413 13.8862 7.85354 13.9813 7.84428 14.0754C7.83502 14.1696 7.80727 14.2608 7.7627 14.3438L6.3327 17.2789C6.3137 17.318 6.30382 17.3612 6.30382 17.4049C6.30382 17.4486 6.3137 17.4917 6.3327 17.5309L7.7627 20.4649ZM12.65 21.4875H10.45C9.9761 21.4869 9.52178 21.2941 9.18669 20.9514C8.85159 20.6087 8.66308 20.144 8.6625 19.6594V14.0344C8.6625 13.8479 8.73493 13.6691 8.86386 13.5372C8.99279 13.4053 9.16766 13.3313 9.35 13.3313C9.53234 13.3313 9.70721 13.4053 9.83614 13.5372C9.96507 13.6691 10.0375 13.8479 10.0375 14.0344V19.6594C10.0375 19.7713 10.081 19.8786 10.1583 19.9577C10.2357 20.0368 10.3406 20.0813 10.45 20.0813H12.65C12.8323 20.0813 13.0072 20.1553 13.1361 20.2872C13.2651 20.4191 13.3375 20.5979 13.3375 20.7844C13.3375 20.9709 13.2651 21.1497 13.1361 21.2816C13.0072 21.4134 12.8323 21.4875 12.65 21.4875ZM15.8697 16.1348L17.8937 17.514C18.2721 17.7721 18.5594 18.1479 18.7131 18.5857C18.8668 19.0236 18.8787 19.5004 18.7472 19.9457C18.6156 20.3911 18.3475 20.7814 17.9825 21.059C17.6175 21.3366 17.1749 21.4868 16.72 21.4875H14.85C14.6677 21.4875 14.4928 21.4134 14.3639 21.2816C14.2349 21.1497 14.1625 20.9709 14.1625 20.7844C14.1625 20.5979 14.2349 20.4191 14.3639 20.2872C14.4928 20.1553 14.6677 20.0813 14.85 20.0813H16.72C16.88 20.0812 17.0358 20.0285 17.1643 19.9309C17.2927 19.8334 17.3871 19.6961 17.4335 19.5395C17.4799 19.3829 17.4757 19.2151 17.4217 19.0611C17.3677 18.907 17.2667 18.7748 17.1336 18.684L15.1096 17.3036C14.7307 17.0456 14.443 16.6697 14.2892 16.2314C14.1355 15.7932 14.1237 15.316 14.2557 14.8704C14.3878 14.4248 14.6565 14.0346 15.0223 13.7574C15.3881 13.4802 15.8314 13.3308 16.2866 13.3313H18.1566C18.3389 13.3313 18.5138 13.4053 18.6427 13.5372C18.7717 13.6691 18.8441 13.8479 18.8441 14.0344C18.8441 14.2209 18.7717 14.3997 18.6427 14.5316C18.5138 14.6634 18.3389 14.7375 18.1566 14.7375H16.28C16.12 14.7376 15.9642 14.7903 15.8357 14.8878C15.7073 14.9854 15.6129 15.1226 15.5665 15.2792C15.5201 15.4359 15.5243 15.6036 15.5783 15.7577C15.6323 15.9117 15.7333 16.0439 15.8664 16.1348H15.8697Z" fill="#56A182"/>
</svg>
