<svg width="22" height="27" viewBox="0 0 22 27" fill="none" xmlns="http://www.w3.org/2000/svg">
<path fill-rule="evenodd" clip-rule="evenodd" d="M0 2.7C0 1.98392 0.231785 1.29716 0.644365 0.790812C1.05695 0.284463 1.61652 0 2.2 0L19.8 0C20.3835 0 20.9431 0.284463 21.3556 0.790812C21.7682 1.29716 22 1.98392 22 2.7V24.3C22 25.0161 21.7682 25.7028 21.3556 26.2092C20.9431 26.7155 20.3835 27 19.8 27H2.2C1.61652 27 1.05695 26.7155 0.644365 26.2092C0.231785 25.7028 0 25.0161 0 24.3L0 2.7ZM4.4 5.4H8.8V3.6H4.4V5.4ZM4.4 9H8.8V7.2H4.4V9ZM8.8 12.6H4.4V10.8H8.8V12.6ZM8.63867 14.4H4.56133L3.41147 20.0448C3.33037 20.4427 3.3242 20.8581 3.39343 21.2593C3.46267 21.6606 3.60548 22.0372 3.81104 22.3606C4.0166 22.6841 4.27949 22.9457 4.57976 23.1258C4.88003 23.3059 5.20979 23.3997 5.544 23.4H7.65307C7.9874 23.4 8.31733 23.3064 8.61778 23.1264C8.91824 22.9464 9.18132 22.6848 9.38704 22.3614C9.59276 22.0379 9.73571 21.6612 9.80503 21.2598C9.87434 20.8584 9.8682 20.4429 9.78707 20.0448L8.63867 14.4ZM13.5872 18.108C13.7041 18.031 13.8358 17.9944 13.9683 18.002C14.1008 18.0096 14.2291 18.0612 14.3396 18.1512L17.6 20.8188V18H19.0667V22.5C19.0666 22.6628 19.0306 22.8225 18.9624 22.9622C18.8942 23.1018 18.7964 23.2161 18.6795 23.293C18.5625 23.3698 18.4308 23.4063 18.2983 23.3985C18.1658 23.3907 18.0375 23.339 17.9271 23.2488L14.6667 20.5812V23.4H13.2V18.9C13.2002 18.7374 13.2363 18.5778 13.3045 18.4384C13.3727 18.2989 13.4704 18.1848 13.5872 18.108ZM13.2 10.8V16.2H14.6667V14.4H17.6V16.2H19.0667V10.8H17.6V12.6H14.6667V10.8H13.2ZM17.6 7.2V6.3C17.6 5.58392 17.3682 4.89716 16.9556 4.39081C16.5431 3.88446 15.9835 3.6 15.4 3.6C14.8165 3.6 14.2569 3.88446 13.8444 4.39081C13.4318 4.89716 13.2 5.58392 13.2 6.3V9H19.0667V7.2H17.6Z" fill="#590D95"/>
</svg>
